<svg width="96" height="26" viewBox="0 0 96 26" fill="none" xmlns="http://www.w3.org/2000/svg">
<path fill-rule="evenodd" clip-rule="evenodd" d="M21.2178 22.9517H25.1232V0.337891H21.2178V22.9517Z" fill="#00AA76"/>
<path fill-rule="evenodd" clip-rule="evenodd" d="M39.6377 22.9534H43.5432V5.55273H39.6377V22.9534Z" fill="#00AA76"/>
<path fill-rule="evenodd" clip-rule="evenodd" d="M35.0978 9.2413C32.6485 9.2413 30.6552 11.4436 30.6552 14.1501C30.6552 16.8566 32.6485 19.0588 35.0978 19.0588C37.5471 19.0588 39.5397 16.8566 39.5397 14.1501C39.5397 11.4436 37.5471 9.23981 35.0978 9.23981V9.2413ZM35.0978 22.7828C30.6746 22.7828 27.0762 18.9101 27.0762 14.1502C27.0762 9.39028 30.6717 5.51758 35.0978 5.51758C39.5239 5.51758 43.1194 9.39028 43.1194 14.1502C43.1194 18.9101 39.521 22.7828 35.0978 22.7828Z" fill="#00AA76"/>
<path fill-rule="evenodd" clip-rule="evenodd" d="M10.9182 18.7691C6.97962 18.7691 3.77458 15.5083 3.77458 11.5002C3.77458 7.49214 6.97962 4.23202 10.9182 4.23202C12.9159 4.22693 14.826 5.08556 16.1913 6.6027L19.1965 4.2089C17.1101 1.7228 14.0906 0.298722 10.9182 0.304706C4.89782 0.304706 0 5.32725 0 11.5002C0 17.6732 4.89782 22.6956 10.9182 22.6956C13.9664 22.7012 16.8793 21.3865 18.9577 19.0668L16.4502 16.0933C15.0793 17.7951 13.0525 18.7754 10.9182 18.7691Z" fill="#00AA76"/>
<path fill-rule="evenodd" clip-rule="evenodd" d="M45.291 20.4253L47.485 17.9133C48.6866 18.9157 50.2456 19.6062 51.6357 19.6062C53.2306 19.6062 54.0087 19.004 54.0087 18.0428C54.0087 17.0232 53.048 16.6963 51.5725 16.1143L49.3763 15.2166C47.6252 14.5344 45.9663 13.1557 45.9663 10.803C45.9663 8.11975 48.4673 5.97656 51.9844 5.97656C53.931 5.97656 55.9654 6.71191 57.4209 8.09881L55.4922 10.4066C54.3791 9.58819 53.3205 9.13487 51.9844 9.13487C50.6678 9.13487 49.8271 9.65851 49.8271 10.5869C49.8271 11.5803 50.9324 11.9408 52.4073 12.5041L54.5603 13.3397C56.6242 14.1395 57.9128 15.4567 57.9128 17.745C57.9128 20.4381 55.5728 22.7653 51.5465 22.7653C49.3511 22.7676 47.0147 21.9694 45.291 20.4253Z" fill="#00AA76"/>
<path fill-rule="evenodd" clip-rule="evenodd" d="M59.3491 20.223L61.5431 17.711C62.7447 18.7134 64.303 19.4031 65.6938 19.4031C67.2887 19.4031 68.0668 18.8046 68.0668 17.8404C68.0668 16.8209 67.1061 16.4939 65.6298 15.9119L63.4344 15.0142C61.6833 14.3312 60.0236 12.9533 60.0236 10.6007C60.0236 7.91663 62.5254 5.77344 66.0425 5.77344C67.9884 5.77344 70.0235 6.50878 71.479 7.89643L69.5503 10.2034C68.4372 9.38507 67.3786 8.93175 66.0425 8.93175C64.7259 8.93175 63.8852 9.45539 63.8852 10.3837C63.8852 11.3772 64.9905 11.7385 66.4654 12.301L68.6184 13.1366C70.6823 13.9363 71.9709 15.2536 71.9709 17.5427C71.9709 20.2357 69.6309 22.5622 65.6039 22.5622C63.4092 22.5644 61.0728 21.7685 59.3491 20.223Z" fill="#00AA76"/>
<path fill-rule="evenodd" clip-rule="evenodd" d="M74.3921 3.92773L78.5579 5.55327V24.2398L74.3921 26V3.92773Z" fill="#00AA76"/>
<path fill-rule="evenodd" clip-rule="evenodd" d="M74.1973 0V2.64065L78.7528 4.19811V1.76018L74.1973 0Z" fill="#00AA76"/>
<path fill-rule="evenodd" clip-rule="evenodd" d="M81.8116 22.9533L85.717 21.2612V12.8971C85.7098 11.8851 86.1814 10.9341 86.9783 10.3537C87.4891 9.9945 88.0942 9.80816 88.7107 9.82035C88.7107 9.82035 90.5343 9.77023 91.5871 11.4279C91.8805 11.8986 92.0349 12.4484 92.0315 13.0093V21.3284L96.0002 22.9533V12.5179C96.0007 11.9053 95.9036 11.2967 95.7126 10.7173C95.1251 8.94512 93.4352 5.70079 88.9048 5.55566C88.9048 5.55566 83.1771 5.62299 81.8101 11.1751L81.8116 22.9533Z" fill="#00AA76"/>
</svg>
