<svg xmlns="http://www.w3.org/2000/svg" xmlns:xlink="http://www.w3.org/1999/xlink" width="255" height="49" viewBox="42.177 32.303 255 49"><defs><path id="a" d="M0 0h340.16v113.39H0z"/></defs><clipPath id="b"><use xlink:href="#a" overflow="visible"/></clipPath><path clip-path="url(#b)" fill="#FFF" d="M50.436 71.526s1.58-1.172 1.733-1.885c.153-.715-.969-3.211-2.243-4.383-1.273-1.172-3.668-1.224-4.229 0-.56 1.223-.662 1.844-1.985 3.214-1.322 1.37-1.818 1.535-.944 2.739.873 1.204 5.856 6.187 12.231 8.123 1.208.367 4.109 1.417 8.69 1.417s10.815-1.252 16.624-5.597c.825-.617 4.621-3.64 4.77-4.983.118-1.062-1.228-1.888-2.03-3.305-.804-1.417-1.016-3.755-4.322-2.503-.267.1-.904.44-1.227.991-.324.551-1.205 1.724-1.842 2.409-.639.685-.52 1.533-.048 2.102.28.334 1.63 1.439 1.63 1.439-4.109 2.717-7.431 4.356-13.484 4.487-.639.014-6.943.379-13.324-4.265"/><path clip-path="url(#b)" fill="#00B48D" d="M46.189 53.971s-.078 8.483 6.421 14.982c5.274 5.274 11.084 6.269 11.084 6.269V46.633H46.189v7.338z"/><path clip-path="url(#b)" fill="#009CD5" d="M81.198 53.971s.078 8.483-6.421 14.982c-5.275 5.274-11.083 6.269-11.083 6.269V46.633h17.504v7.338z"/><path clip-path="url(#b)" fill="#EF4123" d="M46.184 32.508h35.014v14.125H46.184z"/><path clip-path="url(#b)" fill="#FFD530" d="M75.72 66.279h-9.549s-.209 2.165-2.365 2.117c-2.41-.054-2.365-2.117-2.365-2.117H52.06V49.208h23.66v17.071z"/><path clip-path="url(#b)" fill="#FFF" d="M54.854 48.43s.956.707 2.299.512c1.344-.194 3.927-1.556 5.412-.778 1.486.778 1.274.567 1.274.567s1.539-1.592 3.944-.991c2.405.601 2.369 1.282 3.591 1.149 1.255-.137 1.485-.529 1.485-.529v14.758s-.866.946-2.759.557c-1.893-.389-3.325-1.786-6.296.177 0 0-1.68-1.203-3.449-.901-1.769.301-3.598 1.7-5.681.576l.038-14.796.142-.301z"/><path clip-path="url(#b)" fill="#FFD400" d="M75.753 43.888c.406-.009.697.112.917.294-.012.023-.024.049-.037.072-.269.086-.471.367-.697.331-.163-.051-.151-.092-.256-.183-.007-.222.015-.38.073-.514M48.968 42.237c.576.098 1.006.764 1.285 1.174v.037h-.184c-.582-.176-1.106-.178-1.321-.734.065-.222.111-.325.22-.477M54.638 35.963c-.049-.013-.171-.02-.221-.031-.097.322.15.677.459.801l.257.037.22-.33c.031-.067.013-.129-.14-.098 0 0-.227-.238-.575-.379"/><path clip-path="url(#b)" fill="#785342" d="M63.618 48.717h.229v15.115h-.229z"/><path clip-path="url(#b)" fill="#3E1F0C" d="M81.042 46.427H46.414V32.684h34.627v13.743zm.041 6.071c0 8.34-4.202 14.563-8.531 18.127-3.511 2.889-7.288 4.116-8.531 4.325l-.045-6.422a1.393 1.393 0 01-.382-.075l.01 6.492c-3.303-.242-17.191-6.449-17.191-22.448v-5.689h17.152l-.004 2.129c.103.168.248.199.386.092v-2.221h17.136v5.69zM46.031 32.303v20.195c0 8.877 4.166 14.498 7.661 17.648 4.162 3.753 9.287 5.299 10.008 5.299.847 0 5.139-1.575 7.79-3.472 4.761-3.406 9.78-9.653 9.933-19.475V32.303H46.031z"/><path clip-path="url(#b)" fill="#3E1F0C" d="M85.194 69.528c-.124-.401-.312-.625-.654-1.031a20.036 20.036 0 01-1.198-1.546c-.406-.575-.642-1.081-.851-1.526-.379-.813-.653-1.399-1.617-1.563-1.118-.19-2.073.205-2.89.811-.258.426-.527.836-.805 1.233.975-1.021 2.146-1.92 3.631-1.667.766.129.969.563 1.335 1.348.204.437.459.981.885 1.584.555.787.938 1.241 1.217 1.573.33.392.481.569.581.897.146.473.081 1.112-1.366 2.56-3.928 3.928-8.673 6.547-14.104 7.784-1.973.449-5.678.604-5.716.605-.021-.002-3.727-.156-5.699-.605-8.008-1.824-12.232-6.055-13.62-7.444l-.072-.071c-1.306-1.307-1.829-1.857-1.66-2.408.083-.266.275-.449.595-.752.376-.354.89-.842 1.545-1.768.422-.599.679-1.144.886-1.58.367-.775.588-1.243 1.359-1.374 1.194-.202 1.995.199 2.707.854a23.24 23.24 0 01-.528-.862c-.609-.35-1.329-.523-2.243-.368-.967.164-1.249.761-1.64 1.587-.211.447-.451.952-.853 1.523a10.372 10.372 0 01-1.496 1.711c-.34.322-.585.555-.697.917-.244.792.424 1.46 1.755 2.79l.071.072c1.408 1.409 5.69 5.697 13.806 7.547 2.007.458 5.632.607 5.784.613.169-.006 3.794-.155 5.801-.613 5.502-1.254 10.31-3.908 14.289-7.887 1.302-1.304 1.713-2.129 1.462-2.944m-33.831-.403c.008.393-.207.608-.422.647-.242.043-.598-.125-.808-.733-.35-1.01-1.15-2.313-1.184-2.368l-.144-.232s-1.321 1.68-1.567 1.99c-.527-.716-.83-1.395-.83-1.981 0-.028 0-.057.002-.085.025-.504.188-.823.497-.976.696-.344 1.98.248 2.245.432 1.603 1.103 2.193 2.431 2.211 3.306m28.173-2.583l-.145.111a5.472 5.472 0 00-1.478 1.938c-.244.543-.835.942-1.291.872-.391-.06-.516-.439-.552-.747-.108-.918.7-2.067 2.16-3.07.328-.227 1.877-.979 2.625-.607.279.139.425.422.446.869l.002.086c0 .545-.247 1.169-.685 1.83-.222-.265-1.082-1.282-1.082-1.282m-32.798-1.498c-.438.216-.677.653-.71 1.299-.12 2.37 4.055 5.989 9.305 8.069a22.212 22.212 0 008.318 1.591c3.084 0 6.535-.778 8.352-1.547 4.861-2.059 9.811-5.825 9.68-8.568-.028-.589-.249-.991-.658-1.192-.991-.492-2.733.441-3.012.634-1.602 1.103-2.449 2.353-2.322 3.431.072.611.39 1.006.873 1.08.633.098 1.379-.383 1.698-1.094a5.205 5.205 0 011.224-1.672l.901 1.068c-.704.947-1.785 1.959-3.122 2.933-.179-.139-1.116-.872-1.501-1.288-.446-.48-.481-1.154-.132-1.899-.198.228-.398.45-.602.665-.076.568.071 1.082.453 1.494.364.394 1.151 1.02 1.457 1.26a27.828 27.828 0 01-5.086 2.797c-1.782.754-5.171 1.518-8.203 1.518-2.844 0-5.519-.512-8.177-1.564a25.191 25.191 0 01-4.787-2.516c.309-.281 1.019-.93 1.366-1.305.312-.339.432-.796.375-1.318a24.227 24.227 0 01-.521-.563c.244.663.211 1.248-.135 1.621-.36.389-1.154 1.111-1.409 1.341-1.198-.844-2.193-1.729-2.885-2.575l1.286-1.634c.247.423.757 1.333 1.007 2.056.289.838.847 1.054 1.237.983.445-.079.748-.503.737-1.031-.02-.97-.654-2.429-2.377-3.612-.231-.162-1.698-.922-2.63-.462"/><path clip-path="url(#b)" d="M46.525 70.256l.64-.326s.152-.051-.287-.068c-.046-.425-.367-.873-1.13-.791-.764.081-.477.928-.437 1.268.042.342.014 1.295-.531 1.254-.546-.041-.491-.98-.436-1.213-.232.123-.695.426-.736.45-.018.011.011.028.078.024.093-.006.238-.03.236.027-.002.043.299.916.885.875.586-.041.968-.342.954-1.063-.013-.722-.285-1.368.193-1.449.477-.081.7.63.571 1.012M46.56 71.75l1.069-.729-.502 1.205-.567-.476zm1.583-.928l-.326-.251-2.423 1.605c-.051.035-.199.025-.304-.01-.079-.025-.079.016-.046.046.041.036.481.452.529.489.047.039.071-.004.045-.037-.026-.035-.143-.162-.031-.25.047-.036.39-.266.806-.55l.648.571-.404.971c-.035.076-.258-.02-.258-.02s-.079.001-.022.055c.17.16.578.515.613.545.048.041.092-.014.044-.054-.058-.05-.092-.146.075-.551l1.054-2.559M59.694 78.05c.277-.577.613-1.167.613-1.167l.242 1.225-.855-.058zm.868-1.645l-.313-.021s-1.293 2.382-1.414 2.624c-.027.057-.159.123-.268.145-.082.018-.06.054-.017.063.054.011.642.15.703.158.06.01.059-.039.02-.055-.04-.018-.206-.067-.152-.2.023-.056.247-.423.464-.878l.995.09.188.996c.02.081-.213.146-.211.146 0 0-.062.052.016.058.233.018.771.037.819.038.063.002.063-.068 0-.07-.077-.002-.173.045-.245-.389-.077-.47-.585-2.705-.585-2.705M47.151 74.059s.506.37.547.398c.041.029.081.006.047-.048-.035-.055-.167-.162.109-.501.276-.338 1.406-1.895 1.406-1.895s.963.578.501 1.334c-.406.665-1.23.213-1.48-.016-.151-.139-.151.063-.151.063s.327.289.615.389c.289.101 1.042.25 1.406-.326.364-.578-.05-1.169-.64-1.506-.59-.34-.64-.402-.64-.402s-.074.016.002.09c.077.074.108.16.036.258-.071.098-1.411 1.949-1.507 2.064-.095.115-.253.008-.251.098M50.749 72.915s.169.15 0 .413-1.296 1.981-1.296 1.981-.106.139-.318.07c-.031-.01-.087.02-.015.062.165.097.479.3.607.384.094.062.036-.061.036-.061s-.103-.117.009-.286c.113-.169 1.23-1.952 1.352-2.103.123-.151.206-.109.282-.074.076.036.089-.017.036-.051a65.564 65.564 0 00-.685-.402c-.043-.024-.027.038-.027.038M51.662 73.467s1.463.771 1.598.811c0 0-.223.478-.262.533-.04.056-.064-.15-.024-.381-.382-.247-.954-.51-.954-.51l-1.185 2.218s.82.481.913.518c.184.073.376-.255.431-.239.056.017-.246.486-.286.549-.04.064-1.383-.685-1.773-.875-.096-.047-.048-.103.135-.07.183.031.183.039.326-.191s1.066-1.939 1.121-2.035c.056-.098-.191-.391-.04-.328"/><path clip-path="url(#b)" d="M51.328 74.978s.469.247.597.318c.127.071.254.023.325-.096.072-.118.095-.048.008.12-.087.166-.23.412-.294.516-.063.104-.135.08-.063-.08.071-.158-.064-.23-.295-.35s-.429-.246-.429-.246l.151-.182zM63.641 76.61s1.651-.102 1.787-.137c0 0 .057.522.052.59s-.132-.096-.218-.313c-.404.01-1.079.061-1.079.061l-.009 2.658s1.03-.047 1.131-.059c.195-.021.377-.601.434-.613.057-.011-.114.88-.114.88s-1.684.07-2.106.083c-.107.002-.09-.069.086-.127.177-.057.188-.104.207-.375.019-.27.035-2.28.033-2.391-.002-.109-.366-.233-.204-.257"/><path clip-path="url(#b)" d="M64.113 77.887s.529-.027.675-.03.231-.109.232-.249c.001-.139.058-.089.068.1.009.188.012.473.01.594s-.076.138-.095-.035c-.02-.174-.172-.166-.432-.15-.258.014-.494.006-.494.006l.036-.236zM52.104 77.047s.56.236.711.306c.116.017.092-.06-.031-.182-.03-.03-.022-.142.073-.31.088-.156.761-1.549.761-1.549l.397 2.533.485.16s.878-2.254.959-2.465c.083-.211.203-.168.301-.146.099.021.108-.069.009-.104-.099-.035-.611-.185-.718-.224-.108-.038-.078.069.013.112.09.043.103.111.064.254-.039.141-.731 2-.731 2l-.439-2.731s-.37-.229-.456-.28-.112.043-.03.115c.082.074.077.143.017.28-.06.138-1.029 2.028-1.085 2.12-.055.091-.354-.008-.3.111M56.065 75.426l-.161.572c.233-.283.508-.26.508-.26l.326.088c-.11.38-.64 2.219-.705 2.414-.073.217-.284.099-.314.178-.014.037-.004.051.082.07.105.025.487.166.565.188.078.021.088.033.098.005.041-.115-.18-.116-.109-.335.028-.086.628-2.131.715-2.428.176.051.347.103.454.145.105.04.235.201.25.467.057-.225.178-.572.178-.572l-1.887-.532zM65.976 76.549l.066.59c.11-.35.373-.43.373-.43s.38-.04.57-.064c.043.395.244 2.297.258 2.502.015.229-.231.201-.224.285.004.04.018.043.105.029.115-.019.545-.068.626-.082.08-.014.093-.009.09-.037-.012-.123-.242.011-.259-.218-.006-.091-.222-2.211-.253-2.519.182-.02.46-.093.673-.118.112-.015.272.065.387.306a8.497 8.497 0 01-.052-.598l-2.36.354zM57.674 78.977l.742.15s.058-.068-.076-.119c-.02-.008-.081-.088-.05-.225 0 0 .417-2.199.448-2.354.032-.155.106-.144.187-.137.081.006.156-.101-.005-.131-.163-.032-.475-.081-.63-.112-.111-.022-.131.076-.075.1.075.031.193.125.175.23-.02.11-.418 2.124-.461 2.329-.031.145-.1.207-.212.181-.081-.018-.108.072-.043.088M62.545 78.12a.233.233 0 11-.466 0 .233.233 0 01.466 0M69.538 77.55a.233.233 0 11-.465 0 .233.233 0 01.465 0M69.638 75.889l.915-.203s.104.033-.059.107c-.106.048-.077.074-.04.126.04.058 1.393 2.169 1.393 2.169l.189-2.698s-.059-.062-.204-.001c-.04.02-.098-.021-.036-.064.063-.046.496-.234.547-.257.051-.022.149.014.032.09-.094.061-.086.101-.093.147a767.9 767.9 0 00-.252 3.016l-.422.166-1.625-2.505s-.128-.022-.252-.003-.137-.073-.093-.09M72.774 75.066s.977 2.269 1.009 2.358c.034.091.039.187-.056.258-.096.072-.058.129.008.096.068-.033.556-.285.68-.352.077-.042.037-.111-.077-.064-.115.049-.177-.071-.229-.2-.041-.099-.941-2.206-.941-2.206-.024-.061.018-.131.109-.2.067-.05.065-.142-.026-.094-.092.047-.676.321-.732.354-.056.032-.032.079.074.05s.164-.023.181 0M75.578 75.098a8.379 8.379 0 01-.6.57l-.675-1.3c.147-.073.284-.146.366-.193.276-.159.434-.111.702-.021.269.091.407.717.207.944m1.997.695c-.213.055-.386-.063-.751-.352s-.771-.537-.957-.447c.055-.117.213-.51.007-.875s-.764-.42-1.019-.289a52.11 52.11 0 00-1.212.689c-.066.125.085.097.294.015l1.318 2.517c-.132.098-.145.195-.145.195l.723-.358s-.001-.058-.217.009l-.55-1.059c.066-.083.179-.214.326-.348.42-.338.95.198 1.336.468.386.269.44.221.599.089.159-.13.461-.309.248-.254M78.578 75.04l-1.374-2.213.402-.271c.291-.194.592.105.592.105l-.363-.536-1.846 1.26.34.486s-.147-.342.073-.494l.434-.299 1.403 2.189c-.26.199-.098.212-.098.212l.64-.442c0 .001.031-.124-.203.003M77.986 72.007l.699-.541s-.118.245.069.491c.187.247 1.043 1.379 1.299 1.566.256.187 1.004-.079.896-1.094.236.168.03 1.182-.531 1.447-.523.248-.737-.103-.906-.305-.66-.787-.904-1.104-1.122-1.368-.188-.225-.404-.196-.404-.196"/><path clip-path="url(#b)" d="M79.325 70.836l.62-.531s-.138.166.138.512c.276.344 1.073 1.407 1.289 1.613.217.207.483.09.502-.029.02-.117.059-.039.01.139-.049.178-.212.539-.63.266-.285-.188-.325-.256-.413-.354a104.426 104.426 0 01-1.201-1.526c-.128-.169-.315-.09-.315-.09M81.746 69.448l-.216-.865s-.072.049-.072.145 0 .229-.108.24-.433-.035-.756.6c-.109.213-.072 1.08.444.973.516-.108 1.536-.527 1.884.119.348.648-.444 1.105-1.044.793-.012 0 .228.709.288.889.048-.049.047-.209.12-.276.144-.133.792-.192.864-1.032.072-.84-.48-1.186-.912-1.213-.576-.035-1.416.529-1.489.133-.064-.359.625-.723.997-.506"/><path clip-path="url(#b)" fill="#FFD400" d="M53.303 41.403c.194.311.474.687 1.085 1.505.059.05.061.135.074.184-.592.11-1.026-.017-1.494-.194-.177.232-.445.358-.77.441v-.992c.001-.018-.024-.022-.038 0-.241.144-.534.353-.937.237.166-.334.211-.765.13-.75h-.036c-.365.081-.621.237-1.002.178-.101-.019-.05-.07-.026-.105l.257-.66c-.376.061-.706.121-1.07-.037.087-.086.214-.171.3-.256.071-.094.122-.197.183-.295l-.073-.072c-.316.09-.657-.078-.928-.179.09-.112.152-.194.304-.3.138-.058.263-.152.22-.219-.036-.025-.032-.086-.099-.099-.369-.045-.754-.068-1.002-.293.025-.037.086-.084.11-.121.313-.262.371-.236.844-.221 0-.012.064.002.006-.089-.212-.335-.102-1.042-.137-.896-.088.466-.805.527-.786.362.012-.811-.299-.545-.359-.74-.043-.143.072-.291.286-.418.495-.297.785.277.697-.017-.05-.061-.056-.143-.147-.183-.387-.076-.717-.251-.807-.441-.073-.18-.05-.445.089-.66a.357.357 0 01.168-.109c.411-.061.798.726.843.55-.21-.624-.297-1.326.271-1.558.117-.032.344-.041.5.127.261.318-.034 1.17 0 1.797.038.697.422 1.539.734 2.054.259.387.563.766.954 1.139.349.271.886.618 1.25.693.046.112.136.309.181.444.065.068.115.115.225.193"/><path clip-path="url(#b)" fill="#FFD400" d="M53.663 37.786c.104.05.21.1.296.158-.331.717-.575 1.475.33 2.129.176.127.395.217.575.244.111.213.68.346.82.159l.586-.11c.63-.273.911-.851.918-1.541.413-.016.52-.2.733-.403l.074.11c.172.311.002.809-.147 1.027l-.33-.331h-.038c.097.345.32.672.183 1.065a.988.988 0 00-.073-.036c-.06-.188-.133-.278-.33-.331v.037c.228.383.477 1.098 0 1.468h-.037c-.005-.374-.15-.643-.366-.808-.025.024-.049.05-.074.073.102.235.383.84.208 1.141-.294-.22-.632-.549-.925-.77 0 .037.089.248.129.293.196.295.381.686-.056 1.33-.242-.72-1.199-1.248-1.382-1.664-.039.718.884 1.224.155 2.239-.024-.012-.049-.024-.073-.038-.189-.63-.719-.955-1.028-1.466-.218-.362-.32-.621-.193-1.204-.067-.005-.113.053-.137.066-.073.122-.167.319-.24.44-.107-.066-.1-.14-.127-.219-.106-.449.195-.62.304-1.014a.937.937 0 00.026-.124c-.012 0-.017-.114-.11.107-.086.168-.101.233-.259.321-.021-.043-.03-.159.003-.208.083-.161.14-.314.15-.569-.016-.037-.053-.007-.064.023-.02.021-.035.064-.055.115-.036.086-.069.125-.105.211-.049.109-.099.125-.113.096-.187-.436.306-.959.443-1.233.034-.097-.002-.076-.036-.037-.172.184-.334.395-.505.578-.028.03-.08.008-.075-.035 0-.109 0-.245.029-.323.16-.489.269-.751.663-1.103.041-.021-.004-.093-.076-.072-.183.063-.462.217-.645.279 0-.062.037-.228.074-.314.109-.16.204-.324.351-.442.05-.02.091-.014.125.01.015.01.157-.246.154-.272-.02-.134.086-.185.082-.33-.254-.503.178-1.151-.031-1.81.341.127.677.465.71.501.01-.311.149-.765.275-.954a.88.88 0 01.226.287l.257.404c.06-.127.093-.353.153-.48.099-.215.243-.424.342-.639.098.257.227.623.324.881.141-.049.04-.104.11-.215.062-.293.16-.427.233-.623.132.226.239.686.305 1.039h.037l.074-.037c.098-.226.189-.367.287-.501.349.361.22.974.306.991.135-.006.299-.312.41-.41.194.215.084.718.201.832.043.036.092-.043.117-.068.247-.217.462-.367.788-.22-.067.636-.129 1.691-.458 1.835-.062.061-.245-.097-.33-.109.364.648.109 1.411-.624 1.429l-.33-.183c-.062-.024-.098-.012-.074.074.476.802-.276 1.653-.991 1.688l-.073-.038.037-.219c.617-.034 1.069-.769.807-1.431h-.036c-.109.303-.194.45-.624.44l-.331-.256c.035-.514.383-.451.661-.698v-.844c.451.323 1.071.096 1.305-.245.158-.438.012-.385-.026-.288-.2.481-1.041.655-1.205.276v-.184a.966.966 0 01.036-.072c.208-.08.581-.142.807-.111.23.032.367-.004.44.183.085-.197.379-.189.383-.519-.153.31-.581.215-.949.222-.331.008-.704.047-.738-.023-.024-.11-.044-.291-.069-.4-.026.019-.078.097-.078.138-.029.543-.038 1.043-.087 1.569-.258-.118-.549-.213-.92-.143v-.035l.514-1.652c-.006-.073-.043-.086-.074-.038-.062.169-.087.288-.22.33h-.037c-.233-.011-.376-.286-.574-.384-.202-.049-.343-.055-.551-.079-.098-.062-.183-.294-.269-.428-.046-.073-.091-.026-.03.274.09.231.317.356.317.356s.008.334.117.519c.188.321.548.332.843.551-.071.211-.249.516-.183.733.161.34.467.509.404.992-.143.068-.212.101-.44.109-.273-.098-.473-.186-.587-.44-.136-.221-.037-.519.073-.697-.024-.025-.049-.048-.073-.074-.147.026-.294.049-.441.074-.26-.054-.471-.32-.545-.689-.004-.02-.119-.076-.119-.076s-.094.224.038.412c.132.186.316.427.368.451"/><path clip-path="url(#b)" fill="#FFE380" d="M50.557 35.292c.261.013.273.094.43.194.295.367-.329.726-.58 1.842-.024.081-.048.155-.06.155a.343.343 0 01-.058-.126c-.17-.674-.02-1.247 0-1.944.002-.103.187-.121.268-.121"/><path clip-path="url(#b)" fill="#FFE380" d="M50.557 35.292c.261.013.273.094.43.194.295.367-.329.726-.58 1.842-.024.081-.048.155-.06.155a.343.343 0 01-.058-.126c-.17-.674-.02-1.247 0-1.944.002-.103.187-.121.268-.121"/><path clip-path="url(#b)" fill="#835221" d="M66.03 33.321c.4.251.03 1.053-.073 1.321.462-.128.793-.413 1.394-.514.851-.143 1.633.321 2.495.111.81-.198 1.584-.982 2.531-.514a2.423 2.423 0 00-.035.073c-.931.166-1.459 1.057-2.276 1.394-.667.276-1.581.048-2.264.083 0 .013.062.052.062.065.979.413.877.881 1.393 1.269-.038.025-.145.064-.182.088-.441.224-1.149.028-1.541-.147l-1.358-.844c-1.216-.692-4.952-.571-5.429.697-.322.786.624 1.195 1.851 1.09.955-.084 1.981-.303 2.368-.281v-.038l-.073-.111-.22-.109.036-.074c.441-.084.641.087 1.028.183.09-.262.169-.504.366-.66.39.082.946.499 1.212.294.475.249 1.662.667 2.31-.11-.222-.083-.652-.44-.697-.703.434.09.887.488 1.394.519l.074-.109c.012-.147-.038-.315-.025-.461.014-.082.083-.116.208-.016.38.238 1.009.541 1.578.44.032-.31-.29-.474-.264-.824.241.127 1.283.658 1.438.531-.012-.184-.121-.423-.133-.606.049.049.195.152.244.201l.587.514h.073c.13-.323.204-.684.376-.949.1-.084.076.093.101.105.181.495.541.914.954 1.102.257-.301-.015-.744.61-1.261 0 .024-.096.318-.096.343-.011.687.023 1.051.44 1.394.382-.076.363-.395.587-.625.388-.394 1.263-.14 1.711-.8-.372 1.146-1.085.979-1.376 1.445-.258.41-.022.687-.151 1.301-.065.306-.271.468-.404.697h.036c.44-.2.67-.613 1.065-.807.535-.262 1.463.127 2.234-.214-.665 1.19-1.337.768-2.178 1.011-.375.11-.529.332-.827.486-.434.227-1.027.306-1.578.405-1.233.22-3.01-.185-3.88-.215-.034.035-.028.123.028.178.661.806 1.423 1.281 2.715 1.467 1.703.246 3.73-1.704 4.916-.11l-.073.074-.257-.074-.073.074c.277.521.903.473.954 1.284-.012.025-.025.048-.036.074l-.441-.147-.036.036c.154.292.464.622.477.917-.136-.023-.27-.048-.404-.072l-.037.403c.061.04.138-.008.199.031.05.034.189.043.286.29-.426.155-.41.366-.521.706-.308-.022-.332-.124-.477-.293a2.551 2.551 0 00-.074.037c-.089.449-.204.768-.477 1.027-.29-.078-.371-.252-.754-.082-.071-.043-.054-.138-.054-.176.044-.261.144-.371.243-.565l.051-.095c.042-.053.053-.127-.036-.073-.086.073-.171.148-.258.22-.119.381-.203.709-.697.734-.308-.168-.328-.49-.587-.697l.037-.073 1.395-.551c.282-.909.018-1.45-.606-1.682-1.354-.503-5.061.541-6.769.105-.703-.18-1.639-.774-1.909-1.395a1.083 1.083 0 01.007-.783c.035-.081-.081-.069-.116-.061l-.147.331-1.064-.221c-1.668-.055-2.811.57-3.596.918-1.575.697-2.576 1.907-5.731 1.473-.119-.055-.151-.018-.176-.006.034.613.415.698.438 1.363-.228.39-.567.551-.915.728-.089.049-.131-.115-.177-.257-.065-.041-.056.099-.08.111.052.51-.273.711-.624.918-.084.057-.1.044-.134-.192-.122-.197-.183-.237-.306-.433-.053-.084-.102-.086-.073.037-.034.391-.231.56-.514.697-.118.082-.175.088-.147-.037-.016-.322-.173-.551-.44-.623-.047.469-.349.61-.697.771-.122.063-.133.032-.11-.111.058-.241.024-.613-.215-.687-.087.432-.564.752-1.069.761.067-.31.212-.468.183-.808-.024-.024-.049-.126-.073-.151-.172.408-.452.596-.881.776-.097.023-.237.08-.273.044.066-.027.123-.355.253-.487.135-.17.253-.231.387-.402a4.993 4.993 0 01-.073-.036l-.845-.037c.043.35.005.561-.219.734-.164-.067-.292-.314-.788-.275-.146-.145-.013-.133-.031-.365.098-.172.17-.18.268-.351l-.037-.036c-.281.179-1.398 1.172-1.834.439-.102-.113-.099-.166-.073-.33.277-.266.747-.232 1.063-.476l-.036-.074c-.41.013-.898.27-1.101.147-.181-.096-.229-.27-.367-.403-.006-.212.015-.358.074-.477.036-.014.073-.025.11-.037 1.424.459 3.161 1.109 5.063.623l1.284-.514.037.037.074.477.11-.037c.511-.668.68-.756.465-1.797.037.037.162.143.199.18.317.328.543.46.306 1.075.666-.125.9-.819.799-1.446.049.037.171.093.212.191.061.109.09.252.151.363.036-.025.138-.195.162-.244.117-.467.34-.246.567-.889.049-.139.007-.396.04-.526.022-.089.087-.117.107-.2.046-.196.074-.447.059-.612.07-.091.133-.152.192-.305.076-.195.137-.509.141-.767.963.096 2.16.262 3.241.244.741-.021 1.492-.123 2.237-.183 4.996-.916 6.301-.758 9.338-.147 1.232.248 3.499.209 3.321-1.064-.171-1.217-2.901-1.188-4.238-.881-2.416.555-4.904.885-7.43 1.359-1.145.213-2.797.483-3.889.036-1.114-.456-1.85-1.659-.77-2.678 1.298-1.227 5.052-.713 5.98-2.129"/><path clip-path="url(#b)" fill="#835221" d="M67.754 40.629a.59.59 0 01.339.107c-.344 1.232.897 1.774 1.386 2.344.043.08.085.567-.271.621.025.549-.265.942-.371 1.032-.345-.227-.537-.463-.789-.662-.052-.031-.049.049-.074.074.09.38-.322.902-.669.972-.091-.332-.121-.666-.284-.908-.153-.089-.086.033-.11.045-.042.568-.291.876-.643 1.129-.024-.012-.168.058-.128-.027-.104-.46-.399-.729-.734-.955l-.073.037c.02.65-.257.921-.661 1.138l-.109-.074c-.36-.338-.172-.396-.258-.697-.158-.012-.265.038-.477-.036-.085.013-.024.048-.036.073.108.238.112.457.036.734-.049.035-.097.073-.146.11-.227-.221-.517-.172-.755-.131-.249-.376.006-.656-.089-.786-.303.243-.772.938-1.421.671-.085-.062-.129.023-.267-.194.009-.305.093-.314.22-.477l.807-.368v-.036a1.987 1.987 0 00-.923.28c-.433-.02-1.059-.367-.581-.757.724-.407 3.847.569 5.515-.714.083-.066.062-.143.062-.166-.953-.619-1.238-1.461-.367-2.386.037.001.848-.167 1.871.007"/><path clip-path="url(#b)" fill="#FFD400" d="M53.663 37.786c.104.05.21.1.296.158-.331.717-.575 1.475.33 2.129.176.127.395.217.575.244.111.213.68.346.82.159l.586-.11c.63-.273.911-.851.918-1.541.413-.016.52-.2.733-.403l.074.11c.172.311.002.809-.147 1.027l-.33-.331h-.038c.097.345.32.672.183 1.065a.988.988 0 00-.073-.036c-.06-.188-.133-.278-.33-.331v.037c.228.383.477 1.098 0 1.468h-.037c-.005-.374-.15-.643-.366-.808-.025.024-.049.05-.074.073.102.235.383.84.208 1.141-.294-.22-.632-.549-.925-.77 0 .037.089.248.129.293.196.295.381.686-.056 1.33-.242-.72-1.199-1.248-1.382-1.664-.039.718.884 1.224.155 2.239-.024-.012-.049-.024-.073-.038-.189-.63-.719-.955-1.028-1.466-.218-.362-.32-.621-.193-1.204-.067-.005-.113.053-.137.066-.073.122-.167.319-.24.44-.107-.066-.1-.14-.127-.219-.106-.449.195-.62.304-1.014a.937.937 0 00.026-.124c-.012 0-.017-.114-.11.107-.086.168-.101.233-.259.321-.021-.043-.03-.159.003-.208.083-.161.14-.314.15-.569-.016-.037-.053-.007-.064.023-.02.021-.035.064-.055.115-.036.086-.069.125-.105.211-.049.109-.099.125-.113.096-.187-.436.306-.959.443-1.233.034-.097-.002-.076-.036-.037-.172.184-.334.395-.505.578-.028.03-.08.008-.075-.035 0-.109 0-.245.029-.323.16-.489.269-.751.663-1.103.041-.021-.004-.093-.076-.072-.183.063-.462.217-.645.279 0-.062.037-.228.074-.314.109-.16.204-.324.351-.442.05-.02.091-.014.125.01.015.01.157-.246.154-.272-.02-.134.086-.185.082-.33-.254-.503.178-1.151-.031-1.81.341.127.677.465.71.501.01-.311.149-.765.275-.954a.88.88 0 01.226.287l.257.404c.06-.127.093-.353.153-.48.099-.215.243-.424.342-.639.098.257.227.623.324.881.141-.049.04-.104.11-.215.062-.293.16-.427.233-.623.132.226.239.686.305 1.039h.037l.074-.037c.098-.226.189-.367.287-.501.349.361.22.974.306.991.135-.006.299-.312.41-.41.194.215.084.718.201.832.043.036.092-.043.117-.068.247-.217.462-.367.788-.22-.067.636-.129 1.691-.458 1.835-.062.061-.245-.097-.33-.109.364.648.109 1.411-.624 1.429l-.33-.183c-.062-.024-.098-.012-.074.074.476.802-.276 1.653-.991 1.688l-.073-.038.037-.219c.617-.034 1.069-.769.807-1.431h-.036c-.109.303-.194.45-.624.44-.138-.022-.257-.13-.331-.256.035-.514.383-.451.661-.698v-.844c.451.323 1.071.096 1.305-.245.158-.438.012-.385-.026-.288-.2.481-1.041.655-1.205.276v-.184a.966.966 0 01.036-.072c.208-.08.581-.142.807-.111.23.032.367-.004.44.183.085-.197.379-.189.383-.519-.153.31-.581.215-.949.222-.331.008-.704.047-.738-.023-.024-.11-.044-.291-.069-.4-.026.019-.078.097-.078.138-.029.543-.038 1.043-.087 1.569-.258-.118-.549-.213-.92-.143v-.035l.514-1.652c-.006-.073-.043-.086-.074-.038-.062.169-.087.288-.22.33h-.037c-.233-.011-.376-.286-.574-.384-.202-.049-.343-.055-.551-.079-.098-.062-.183-.294-.269-.428-.046-.073-.091-.026-.03.274.09.231.317.356.317.356s.008.334.117.519c.188.321.548.332.843.551-.071.211-.249.516-.183.733.161.34.467.509.404.992-.143.068-.212.101-.44.109-.273-.098-.473-.186-.587-.44-.136-.221-.037-.519.073-.697-.024-.025-.049-.048-.073-.074-.147.026-.294.049-.441.074-.26-.054-.471-.32-.545-.689-.004-.02-.119-.076-.119-.076s-.094.224.038.412c.132.186.316.427.368.451"/><path clip-path="url(#b)" fill="#FFD400" d="M53.303 41.403c.194.311.474.687 1.085 1.505.059.05.061.135.074.184-.592.11-1.026-.017-1.494-.194-.177.232-.445.358-.77.441v-.992c.001-.018-.024-.022-.038 0-.241.144-.534.353-.937.237.166-.334.211-.765.13-.75h-.036c-.365.081-.621.237-1.002.178-.101-.019-.05-.07-.026-.105l.257-.66c-.376.061-.706.121-1.07-.037.087-.086.214-.171.3-.256.071-.094.122-.197.183-.295l-.073-.072c-.316.09-.657-.078-.928-.179.09-.112.152-.194.304-.3.138-.058.263-.152.22-.219-.036-.025-.032-.086-.099-.099-.369-.045-.754-.068-1.002-.293.025-.037.086-.084.11-.121.313-.262.371-.236.844-.221 0-.012.064.002.006-.089-.212-.335-.102-1.042-.137-.896-.088.466-.805.527-.786.362.012-.811-.299-.545-.359-.74-.043-.143.072-.291.286-.418.495-.297.785.277.697-.017-.05-.061-.056-.143-.147-.183-.387-.076-.717-.251-.807-.441-.073-.18-.05-.445.089-.66a.357.357 0 01.168-.109c.411-.061.798.726.843.55-.21-.624-.297-1.326.271-1.558.117-.032.344-.041.5.127.261.318-.034 1.17 0 1.797.038.697.422 1.539.734 2.054.259.387.563.766.954 1.139.349.271.886.618 1.25.693.046.112.136.309.181.444.065.068.115.115.225.193"/><path clip-path="url(#b)" fill="#FFD400" d="M66.03 33.321c.4.251.03 1.053-.073 1.321.462-.128.793-.413 1.394-.514.851-.143 1.633.321 2.495.111.81-.198 1.584-.982 2.531-.514a2.423 2.423 0 00-.035.073c-.931.166-1.459 1.057-2.276 1.394-.667.276-1.581.048-2.264.083 0 .013.062.052.062.065.979.413.877.881 1.393 1.269-.038.025-.145.064-.182.088-.441.224-1.149.028-1.541-.147l-1.358-.844c-1.216-.692-4.952-.571-5.429.697-.322.786.624 1.195 1.851 1.09.955-.084 1.981-.303 2.368-.281v-.038l-.073-.111-.22-.109.036-.074c.441-.084.641.087 1.028.183.09-.262.169-.504.366-.66.39.082.946.499 1.212.294.475.249 1.662.667 2.31-.11-.222-.083-.652-.44-.697-.703.434.09.887.488 1.394.519l.074-.109c.012-.147-.038-.315-.025-.461.014-.082.083-.116.208-.016.38.238 1.009.541 1.578.44.032-.31-.29-.474-.264-.824.241.127 1.283.658 1.438.531-.012-.184-.121-.423-.133-.606.049.049.195.152.244.201l.587.514h.073c.13-.323.204-.684.376-.949.1-.084.076.093.101.105.181.495.541.914.954 1.102.257-.301-.015-.744.61-1.261 0 .024-.096.318-.096.343-.011.687.023 1.051.44 1.394.382-.076.363-.395.587-.625.388-.394 1.263-.14 1.711-.8-.372 1.146-1.085.979-1.376 1.445-.258.41-.022.687-.151 1.301-.065.306-.271.468-.404.697h.036c.44-.2.67-.613 1.065-.807.535-.262 1.463.127 2.234-.214-.665 1.19-1.337.768-2.178 1.011-.375.11-.529.332-.827.486-.434.227-1.027.306-1.578.405-1.233.22-3.01-.185-3.88-.215-.034.035-.028.123.028.178.661.806 1.423 1.281 2.715 1.467 1.703.246 3.73-1.704 4.916-.11l-.073.074-.257-.074-.073.074c.277.521.903.473.954 1.284-.012.025-.025.048-.036.074l-.441-.147-.036.036c.154.292.464.622.477.917-.136-.023-.27-.048-.404-.072l-.037.403c.061.04.138-.008.199.031.05.034.189.043.286.29-.426.155-.41.366-.521.706-.308-.022-.332-.124-.477-.293a2.551 2.551 0 00-.074.037c-.089.449-.204.768-.477 1.027-.29-.078-.371-.252-.754-.082-.071-.043-.054-.138-.054-.176.044-.261.144-.371.243-.565l.051-.095c.042-.053.053-.127-.036-.073-.086.073-.171.148-.258.22-.119.381-.203.709-.697.734-.308-.168-.328-.49-.587-.697l.037-.073 1.395-.551c.282-.909.018-1.45-.606-1.682-1.354-.503-5.061.541-6.769.105-.703-.18-1.639-.774-1.909-1.395a1.083 1.083 0 01.007-.783c.035-.081-.081-.069-.116-.061l-.147.331-1.064-.221c-1.668-.055-2.811.57-3.596.918-1.575.697-2.576 1.907-5.731 1.473-.119-.055-.151-.018-.176-.006.034.613.415.698.438 1.363-.228.39-.567.551-.915.728-.089.049-.131-.115-.177-.257-.065-.041-.056.099-.08.111.052.51-.273.711-.624.918-.084.057-.1.044-.134-.192-.122-.197-.183-.237-.306-.433-.053-.084-.102-.086-.073.037-.034.391-.231.56-.514.697-.118.082-.175.088-.147-.037-.016-.322-.173-.551-.44-.623-.047.469-.349.61-.697.771-.122.063-.133.032-.11-.111.058-.241.024-.613-.215-.687-.087.432-.564.752-1.069.761.067-.31.212-.468.183-.808-.024-.024-.049-.126-.073-.151-.172.408-.452.596-.881.776-.097.023-.237.08-.273.044.066-.027.123-.355.253-.487.135-.17.253-.231.387-.402a4.993 4.993 0 01-.073-.036l-.845-.037c.043.35.005.561-.219.734-.164-.067-.292-.314-.788-.275-.146-.145-.013-.133-.031-.365.098-.172.17-.18.268-.351l-.037-.036c-.281.179-1.398 1.172-1.834.439-.102-.113-.099-.166-.073-.33.277-.266.747-.232 1.063-.476l-.036-.074c-.41.013-.898.27-1.101.147-.181-.096-.229-.27-.367-.403-.006-.212.015-.358.074-.477.036-.014.073-.025.11-.037 1.424.459 3.161 1.109 5.063.623l1.284-.514.037.037.074.477.11-.037c.511-.668.68-.756.465-1.797.037.037.162.143.199.18.317.328.543.46.306 1.075.666-.125.9-.819.799-1.446.049.037.171.093.212.191.061.109.09.252.151.363.036-.025.138-.195.162-.244.117-.467.34-.246.567-.889.049-.139.007-.396.04-.526.022-.089.087-.117.107-.2.046-.196.074-.447.059-.612.07-.091.133-.152.192-.305.076-.195.137-.509.141-.767.963.096 2.16.262 3.241.244.741-.021 1.492-.123 2.237-.183 4.996-.916 6.301-.758 9.338-.147 1.232.248 3.499.209 3.321-1.064-.171-1.217-2.901-1.188-4.238-.881-2.416.555-4.904.885-7.43 1.359-1.145.213-2.797.483-3.889.036-1.114-.456-1.85-1.659-.77-2.678 1.298-1.227 5.052-.713 5.98-2.129"/><path clip-path="url(#b)" fill="#FFD400" d="M67.754 40.629a.59.59 0 01.339.107c-.344 1.232.897 1.774 1.386 2.344.043.08.085.567-.271.621.025.549-.265.942-.371 1.032-.345-.227-.537-.463-.789-.662-.052-.031-.049.049-.074.074.09.38-.322.902-.669.972-.091-.332-.121-.666-.284-.908-.153-.089-.086.033-.11.045-.042.568-.291.876-.643 1.129-.024-.012-.168.058-.128-.027-.104-.46-.399-.729-.734-.955l-.073.037c.02.65-.257.921-.661 1.138l-.109-.074c-.36-.338-.172-.396-.258-.697-.158-.012-.265.038-.477-.036-.085.013-.024.048-.036.073.108.238.112.457.036.734-.049.035-.097.073-.146.11-.227-.221-.517-.172-.755-.131-.249-.376.006-.656-.089-.786-.303.243-.772.938-1.421.671-.085-.062-.129.023-.267-.194.009-.305.093-.314.22-.477l.807-.368v-.036a1.987 1.987 0 00-.923.28c-.433-.02-1.059-.367-.581-.757.724-.407 3.847.569 5.515-.714.083-.066.062-.143.062-.166-.953-.619-1.238-1.461-.367-2.386.037.001.848-.167 1.871.007"/><path clip-path="url(#b)" d="M56.563 36.629s-.085.27.122.354c.209.086.355.007.422-.159.068-.164.043-.36-.177-.341-.22.017-.292.032-.367.146M55.175 36.318s-.08.379-.392.231c-.311-.146-.165-.445-.121-.561.042-.116.513.238.513.33"/><path clip-path="url(#b)" fill="#976A3D" d="M77.571 40.997s.321-.104.431-.029c.111.074.247.201.247.308 0 .108.083-.074.098-.169.015-.094-.19-.389-.44-.341-.25.047-.41.151-.336.231"/><path clip-path="url(#b)" fill="#CF8B2D" d="M52.952 41.235s-.268-.19-.467-.382c-.201-.19-.173-.114-.316-.171-.143-.057.057.162.067.363.009.2-.153.563-.391.677-.134.048-.478-.458-.621-.372-.143.086.726.964 1.537 1.27.812.305.487-1.164.191-1.385"/><path clip-path="url(#b)" fill="#926227" d="M52.904 41.149s.296.067.487.277c.191.21.563 1.241.563 1.241s-.162.584-1.517-.2c-.192-.172.342-.086.448-.267.104-.182.305-.506.029-.906-.106-.116-.01-.145-.01-.145"/><path clip-path="url(#b)" fill="#754C1F" d="M53.363 41.417s.143.545.286.84c.144.297-.286.334-.477.334s.019.211.219.297c.201.086.755.228.936.009.182-.219-.964-1.48-.964-1.48"/><path clip-path="url(#b)" fill="#FFE380" d="M50.335 35.514s.32.021.284.168c-.037.146-.19 1.014-.121 1.207.068.195.583-.809.614-1.065.032-.257-.147-.624-.499-.604-.352.021-.456.268-.278.294M50.068 36.192s-.195.299-.247-.043c-.053-.342.073-.949-.089-.934-.164.016-.3-.037-.305.325-.005.363.032.94-.194.904-.226-.037-.294-.51-.247-.799s.084-.787.656-.777c.572.012.515.82.426 1.324M49.07 36.547s-.1.516-.325.116c-.226-.399-.336-.504-.352-.266-.016.235.021.408.021.482 0 .073-.373.1-.404-.121-.032-.221-.011-.582.121-.745.13-.163.713-.185.939.534M49.086 37.677s-.315-.368-.646-.132.052.274.137.51c.083.236.236.215.231.053-.006-.163-.316-.284-.221-.383.095-.101.525.277.499-.048M49.322 39.268s-.394-.143-.588-.037c-.194.105-.231.226-.079.252.153.026.252-.105.457-.069.205.038.378-.02.21-.146M49.658 39.982s-.341.121-.52.263c-.178.142-.042.21.237.293.278.085.047-.12.236-.299.189-.178.131-.304.047-.257M50.199 40.875c-.125-.044-.53.199-.63.315-.099.116.131.057.378-.043s.446-.205.252-.272M50.845 41.567s-.189-.062-.315.143-.184.267-.101.314c.085.047.227-.016.274-.152.033-.095.263-.225.142-.305M51.643 42.05s-.179.017-.305.253-.031.293.111.236c.141-.058.372-.525.194-.489M52.389 42.738s.037.073-.131.194c-.168.121.07.088.246-.078.09-.084-.042-.231-.115-.116M53.153 37.314s-.341.197-.444.44c-.103.244.289-.068.402-.148.115-.08.194-.368.042-.292M53.104 38.168s-.261.346-.288.615c-.027.27.064.121.227-.144.164-.266.16-.243.209-.346.049-.102-.038-.27-.148-.125M53.093 39.497s.064-.33.193-.447c.13-.118.156.097.073.31-.084.213-.133.445-.224.52-.091.076-.057-.279-.042-.383M53.446 39.823s.137-.125.164-.008c.025.118-.144.396-.191.589-.045.193-.204.406-.262.118-.056-.289.05-.273.118-.402.068-.13.084-.225.171-.297M53.567 40.704s.133-.231.278-.129c.144.103.022.342.265.809.243.466.657 1.062.786 1.217.129.157.167.145.106.388-.06.243-.167.266-.303.053-.137-.213-.809-1.018-.957-1.222-.148-.206-.368-.891-.175-1.116M55.151 41.327s.587.482.764.782c.178.3.252.441.343.318.092-.122-.135-.434-.44-.728-.306-.294-.758-.647-.667-.372M56.307 40.996s.378.282.47.452c.092.172.166-.024.05-.17-.117-.147-.6-.513-.52-.282M57.5 40.341s-.147-.195-.312-.226-.031.098.055.233c.086.134.11.305.098.471-.012.165.14.293.226.029.085-.262-.067-.507-.067-.507M57.554 39.442s-.114-.184-.275.043c-.031.043.177.294.214.514.037.22.22.091.232-.135.013-.226-.171-.422-.171-.422M57.725 38.696s.049.166-.005.35c-.056.182.183.336.207.072.025-.262-.006-.44-.202-.422M57.523 37.229s.202.428.056.697c-.147.269.102.17.176.012.24-.508-.322-.832-.232-.709M54.643 37.727s-.252.104-.234.412c.019.309.244.553.534.543.29-.01.234-.158.065-.187-.168-.028-.374-.197-.346-.45s.094-.365-.019-.318M54.063 37.493s-.59 0-.618-.468c-.028-.468.131-.44.206-.505.076-.066.197.056.084.196-.111.14.029.552.225.581.197.028.336.15.103.196M53.426 36.192s.271.355.3.112c.027-.243-.197-.374-.103-.702.093-.328.028-.533.158-.392.132.139.3.055.225-.132-.075-.188-.542-.637-.608-.384-.065.252-.159 1.301.028 1.498M54.212 34.985s.207.309.281.055c.074-.252.159-.271.243-.177.084.093-.14-.646-.317-.6-.179.047-.207.722-.207.722M55.093 34.834s.168-.402.225-.3c.056.103.14.075.093-.178-.047-.252-.047-.496-.169-.336-.121.158-.309.834-.149.814M55.87 34.694s.15-.113.206-.037c.056.074.15.131.15-.094 0-.224-.141-.599-.291-.3-.149.3-.122.31-.065.431M56.497 34.853s.206.028.281-.028c.075-.056.028.113.075.177.046.067.186-.29.065-.589-.122-.299-.431.244-.421.44M57.171 35.349s.075.094.169.169c.093.074.234.327.262.027.027-.299-.244-.59-.3-.459a2.86 2.86 0 01-.131.263M57.808 35.845s.318-.3.505-.234c.188.066.45-.009.328-.16-.122-.149-.618-.139-.711-.017-.095.121-.187.346-.122.411M55.561 36.192s.206-.355.291-.094c.084.262-.123.487-.216.833-.094.347-.253.31-.084.357.168.047.28.159.028.139-.253-.018-.515.198-.393-.074s.176-.956.374-1.161M68.822 41.577s-.674-1.24-.205-1.543c.168-.107.06.555.506 1.17.445.613 1.337 1.131 2.481 1.119 1.144-.012 1.313.097.518.229-.795.132-2.445.482-3.3-.975M71.949 39.962s-.489-.478-.869-.538c-.379-.061-.293.158.013.318.306.158 1.333 1.321 2.532 1.565 1.198.245 3.179-.244 3.877-.452.697-.208.733 0 .856.219.122.221.232-.011.086-.452-.147-.44-.637-.379-1.957.062-1.321.439-2.042.439-2.972.086-.93-.355-.906-.539-1.566-.808M78.798 40.598s.281-.135.489.27c.073.122.025-.013-.281 0-.306.011-.354-.221-.208-.27M79.043 41.711s.403.22.538.367c.134.147.245-.061-.049-.318-.294-.258-.551-.22-.489-.049M79.312 42.677s.318.122.465.354c.147.233.33.27.171-.023a1.665 1.665 0 00-.472-.492c-.164-.106-.303.109-.164.161M79.434 43.386s-.293.099-.085.282c.208.184.415.134.306.33-.11.196.256-.037.318-.074.06-.036-.099-.244-.233-.367-.134-.121-.171-.244-.306-.171M77.796 43.424s.17-.453.244-.038c.073.416.012.697-.44 1.028-.452.33-.807.404-1.076.366-.27-.036-.466-.11 0-.208.464-.097.782-.17.978-.416.196-.244.343-.354.294-.732"/><path clip-path="url(#b)" fill="#FFE380" d="M76.78 44.194s-.392.074-.611.012c-.221-.061-.38.013-.392.183-.012.172-.146.148-.183-.06s.024-.514.207-.538c.184-.025.661.122.979.403M77.759 44.567s.107-.16.25-.232c.143-.071.184.018.089.214-.095.197-.321.35-.244.524.077.172.131.136-.065.237-.197.101-.381.077-.268-.179.113-.255.238-.564.238-.564M58.716 39.258s1.178.449 3.485.158c2.308-.292 3.96-.668 6.51-.68 2.551-.013 5.028.68 6.012.62.984-.063.186-.403-.988-.532-1.174-.128-4.99-.918-8.347-.238-3.357.68-5.448.606-6.275.514-.825-.092-.397.158-.397.158M60.716 36.841s-.075.767 1.234.963c1.309.196 2.227-.075 2.482-.151.256-.075.211-.255-.511-.255s-1.52.27-2.182-.016c-.662-.285-1.023-.541-1.023-.541M59.86 36.499s.243-.838 1.411-1.234c1.168-.398 3.659-.618 4.342-.949.684-.331.508.066.508.066s.11.265.594.199c.485-.066 1.081-.242 2.425-.045 1.345.199 1.345-.176 2.029-.33.683-.154 1.608-.507.947-.529-.661-.022-1.697.551-2.954.42-1.256-.133-2.292-.067-2.887.242-.596.308.132-.154.043-.662-.087-.507-.197.33-2.005.617-1.807.287-4.519.662-4.453 2.205M64.87 36.899s.199.318.093.437c-.107.12.146.092.146-.291 0-.384-.173-.226-.239-.146M65.982 37.004s.212-.186.451-.424c.238-.238-.133-.384-.253-.211-.118.172.08.344-.132.477-.212.133-.066.158-.066.158M69.174 35.905l.106.424s-.517-.083-.517-.569c0-.225.411.145.411.145M70.658 36.422s.106-.41.159-.518c.053-.105-.437-.33-.451-.198-.013.133.173.741.292.716M72.154 36.184s.212-.305.265-.504c.053-.198-.702-.424-.557-.172.146.252.133.623.292.676M73.188 35.799s.397.557.357.226.08-.57-.158-.703c-.24-.132-.199.477-.199.477M74.618 35.098s-.344.265-.292.676c.053.41.279.423.305 0 .027-.425-.013-.676-.013-.676M75.822 35.349s-.238.569-.251.86c-.014.292.278.452.357-.025.08-.478.186-.769.252-1.021.066-.251-.358.186-.358.186M76.75 36.673s-.106-.437.609-.741c.37-.158.994-.226.994-.226s.225.187-.848.517c-.41.146-.649.702-.675 1.019-.027.32-.2-.238-.08-.569M77.492 38.78s.238-.345 1.205-.345c.967 0 1.099-.251 1.298-.476.198-.226-.04-.054-.411.092s-.794-.027-1.47.172c-.676.2-.622.557-.622.557M65.781 40.686s-.541.539-.446 1.158c.054.355.391.846.566.91.175.065.315-.047.194-.25-.12-.202-.627-.23-.545-1.107.032-.34.012-.408.231-.711M68.173 41.674s1.145 1.053 1.292 1.209c.148.158.213.406.148.572-.065.167-.923.158-.692-.193.231-.352-.776-1.164-.748-1.588M61.068 43.795s-.313.199.052.324c.366.125 2.35.303 3.448.021 1.096-.283 1.305-.398 1.619-.899-.283.095-1.286.648-4.075.523-.478-.021-.856-.031-1.044.031M61.873 44.547s.449-.104.438.062c-.01.168-.459.283-.772.555s-.491.114-.449-.105c.04-.219.355-.47.783-.512M63.025 44.888s-.017.093-.031.294c-.013.203.036.375.036.375s-.215.101-.247-.344c-.013-.211.167-.325.242-.325M65.626 44.594s.11-.109.321.083c.211.192.285.696.165.881a1.87 1.87 0 00-.486-.964M67.021 44.301s.027-.229.138-.01c.11.221.275.588.201.881-.064.102-.156.055-.238-.385a5.247 5.247 0 00-.101-.486M64.624 44.907s.241.026.197.404c-.043.379-.137.379-.275.207-.138-.172-.078-.731.078-.611M68.107 44.033s.554.57.667.71.307-.054.183-.27c-.124-.214-.457-.435-.85-.44M48.279 43.849s0-.327.327-.241c.326.086 2.348.679 3.372.679s2.151-.334 2.099-.55c-.052-.215-.37-.018-.878.026-.507.043-2.262.163-3.991-.37-.453-.139-1.058-.283-1.024.068.034.354.052.474.095.388"/><path clip-path="url(#b)" fill="#FFE380" d="M49.354 44.098s.456-.129.517.155c.059.284-.827.224-.973.439-.146.215.112.343.043.396-.068.051-.516-.559-.232-.731.284-.173.327-.19.645-.259M52.081 44.856s-.077.438-.171.594c-.095.154-.423.162-.423.162s.223-.852.594-.756M52.691 45.019s-.017-.318.086-.163c.103.154.396.809-.343.894.094-.421.257-.731.257-.731M57.404 43.016s.276.18.39.315c.113.134.453.433.251.695-.202.261-.559.449-.839.388-.28-.059.11-.161.261-.322.315-.332-.258-1.201-.063-1.076M49.164 42.873s-.018-.405.172-.161c.19.244.303.428.446.523.143.096-.137-.209-.208-.445-.071-.238-.499-.583-.582-.393-.084.189 0 .712.172.476M53.758 45.155s.043-.271.17-.086c.127.186.106.346.063.51-.042.164-.212.232-.212.232l-.021-.656zM54.892 45.149s-.042-.323.08-.18c.121.143.179.36.11.731-.137-.413-.19-.551-.19-.551M56.021 44.985s.281.021.371.328c.09.308-.132.127-.26-.085-.128-.212-.228-.291-.111-.243"/><path clip-path="url(#b)" fill="#FFD400" d="M54.068 38.091c.077-.241.109.126.094.255-.027.223-.132.58-.057.882.135.548.621.569.689.76.029.059-.032.082-.102.047-.912-.3-1.02-1.093-.624-1.944"/><path clip-path="url(#b)" fill="#FFF" d="M54.821 36.153s-.165-.024-.141.109c.025.135.092.178.141.112.049-.069.08-.184 0-.221M56.698 36.617s-.134.056-.085.208c.049.153.245.11.251.006.005-.104-.031-.25-.166-.214"/><path clip-path="url(#b)" fill="#FFD400" d="M61.737 43.081c.038-.08.177-.104.33 0 .144.186.42.248.476.491-.012.025-.17.035-.182.06-.229-.012-.764.006-.917-.11l.293-.441"/><path clip-path="url(#b)" fill="#3E1F0C" d="M54.068 38.091c.077-.241.11.126.094.255-.026.223-.131.58-.057.882.135.548.621.569.689.761.029.058-.031.082-.102.046-.911-.3-1.02-1.093-.624-1.944m7.669 4.989c.038-.08.177-.103.33 0 .144.186.42.248.476.492-.012.024-.17.035-.182.059-.229-.012-.763.006-.917-.109l.293-.442m2.495-6.017c-.816.072-3.237.694-3.334-.385-.02-.082.061-.186.074-.197.34-.692 1.568-.741 2.453-.885l.917-.037c.501.125 1.685.139 1.981.588-.452.051-.566.257-.697.623-.426-.057-1.066-.243-1.357.109-.002.11.008.075-.037.184m15.19 7.558c-.307-.021-.332-.124-.477-.293l-.073.037c-.089.45-.204.769-.477 1.028-.291-.078-.372-.252-.754-.082-.071-.043-.054-.139-.054-.176.043-.262.144-.371.243-.565.016-.032.033-.062.051-.095.041-.054.053-.127-.036-.073l-.258.219c-.119.381-.204.709-.697.735-.308-.168-.329-.491-.587-.698l.037-.073c.465-.183.93-.366 1.394-.551.283-.909.019-1.45-.605-1.681-1.355-.503-5.061.541-6.77.104-.702-.179-1.638-.773-1.908-1.394a1.088 1.088 0 01.006-.783c.036-.082-.081-.07-.116-.061l-.146.33c-.355-.073-.71-.146-1.065-.221-1.667-.054-2.811.571-3.595.918-1.575.698-2.576 1.908-5.731 1.474-.119-.056-.152-.019-.176-.007.034.613.414.698.437 1.363-.228.391-.566.551-.914.729-.089.049-.131-.115-.177-.258-.065-.041-.056.1-.08.111.051.51-.273.711-.624.918-.084.057-.1.044-.134-.191-.122-.197-.183-.237-.306-.434-.054-.084-.102-.086-.074.038-.033.39-.231.559-.513.697-.118.082-.176.088-.147-.037-.016-.323-.173-.551-.44-.623-.048.468-.349.61-.698.77-.121.064-.132.032-.109-.11.058-.241.024-.613-.215-.688-.088.433-.564.752-1.07.762.067-.311.212-.469.184-.809-.024-.023-.049-.126-.073-.15-.173.407-.452.596-.881.775-.097.024-.237.08-.274.044.066-.026.124-.354.254-.487.135-.17.252-.23.387-.401l-.074-.036-.844-.038c.043.35.005.562-.22.735-.163-.068-.292-.315-.787-.276-.146-.144-.013-.132-.031-.365.098-.172.17-.179.268-.35l-.037-.037c-.282.179-1.398 1.172-1.834.44-.102-.113-.099-.166-.074-.33.278-.267.747-.233 1.064-.477l-.036-.074c-.411.014-.898.271-1.101.148-.181-.096-.229-.27-.367-.404-.006-.212.015-.357.074-.476.036-.014.073-.026.109-.037 1.424.459 3.162 1.109 5.063.623l1.285-.514.037.037.073.477.11-.038c.512-.667.681-.755.466-1.796.036.037.162.142.198.179.318.328.544.46.307 1.075.666-.125.9-.819.799-1.446.049.037.171.094.211.192.062.109.091.252.152.363.036-.025.137-.195.162-.244.116-.467.34-.246.567-.89.048-.139.007-.395.04-.525.022-.089.087-.117.107-.2.046-.197.074-.448.059-.613.07-.091.133-.151.192-.304.075-.196.136-.509.141-.767.963.096 2.159.262 3.24.244.742-.021 1.493-.123 2.238-.184 4.996-.916 6.301-.757 9.338-.146 1.232.248 3.499.209 3.32-1.064-.17-1.217-2.9-1.188-4.237-.881-2.416.554-4.904.884-7.43 1.358-1.146.214-2.797.483-3.889.036-1.114-.456-1.85-1.658-.771-2.678 1.299-1.226 5.053-.712 5.981-2.128.4.251.03 1.052-.073 1.321.462-.128.792-.413 1.394-.515.851-.142 1.632.321 2.495.112.81-.199 1.584-.983 2.531-.514l-.036.072c-.93.166-1.459 1.058-2.275 1.395-.668.276-1.581.048-2.264.083 0 .012.062.051.062.064.979.413.877.882 1.392 1.27-.037.024-.144.063-.181.088-.442.223-1.149.028-1.541-.148-.452-.28-.906-.561-1.358-.844-1.217-.691-4.952-.57-5.429.698-.323.786.624 1.195 1.851 1.089.955-.084 1.981-.302 2.368-.281v-.038a4.191 4.191 0 01-.073-.11l-.221-.11.037-.074c.44-.084.641.087 1.027.184.091-.262.17-.504.367-.66.39.082.945.499 1.211.294.476.249 1.663.667 2.311-.111-.223-.083-.652-.439-.697-.702.434.09.887.487 1.394.519l.074-.11c.012-.146-.038-.314-.025-.461.014-.082.083-.115.208-.015.379.238 1.008.541 1.578.439.031-.309-.29-.474-.264-.823.241.127 1.283.657 1.438.53-.012-.183-.121-.423-.133-.605.049.048.195.152.243.201l.587.514h.074c.13-.324.204-.684.376-.95.1-.084.076.094.101.106.181.495.541.914.954 1.101.257-.3-.015-.744.61-1.26 0 .024-.097.318-.097.342-.01.688.024 1.051.441 1.395.382-.076.363-.396.587-.625.387-.395 1.263-.141 1.711-.801-.372 1.147-1.085.98-1.376 1.445-.259.411-.022.688-.152 1.301-.064.307-.27.469-.403.697h.036c.44-.2.67-.613 1.065-.806.535-.263 1.463.127 2.233-.214-.664 1.189-1.336.768-2.177 1.011-.375.109-.529.332-.827.486-.435.227-1.027.306-1.578.404-1.233.221-3.01-.184-3.88-.215-.035.036-.028.124.028.178.661.807 1.423 1.281 2.715 1.468 1.702.245 3.73-1.704 4.916-.11-.024.025-.049.048-.073.074-.085-.026-.171-.049-.257-.074l-.074.074c.277.52.904.473.955 1.283l-.037.074-.441-.146-.036.036c.155.292.465.622.477.917l-.403-.072-.038.403c.062.04.139-.009.2.03.049.034.189.043.285.29-.425.156-.409.366-.521.706m-3.491-.011c-.164-.051-.141-.059-.246-.151-.133-.31-.039-.578.093-.631.406-.007.781.175 1.001.357l-.146.069c-.269.086-.477.393-.702.356m-6.452-1.53c.042.08.085.567-.272.621.026.549-.264.942-.371 1.032-.344-.227-.536-.463-.788-.661-.052-.032-.049.048-.074.073.09.381-.322.902-.669.972-.091-.332-.121-.666-.285-.908-.152-.089-.085.033-.109.045-.042.569-.291.876-.643 1.129-.024-.012-.168.059-.128-.027-.104-.46-.399-.729-.734-.954a4.993 4.993 0 00-.073.036c.02.65-.257.922-.661 1.138l-.11-.074c-.359-.338-.171-.396-.257-.697-.159-.012-.265.038-.477-.036-.085.013-.024.049-.036.073.107.238.112.457.036.734a7.954 7.954 0 00-.146.11c-.227-.221-.517-.172-.755-.131-.249-.376.006-.656-.089-.786-.303.243-.773.938-1.421.671-.085-.062-.129.023-.267-.194.009-.304.093-.314.22-.477l.807-.367v-.037a1.987 1.987 0 00-.923.28c-.433-.02-1.059-.366-.581-.757.723-.407 3.847.569 5.514-.714.083-.065.063-.142.063-.166-.953-.619-1.238-1.461-.367-2.386.036 0 .847-.168 1.871.007a.584.584 0 01.339.108c-.344 1.231.897 1.773 1.386 2.343m-20.511-.843c.576.097 1.006.763 1.285 1.173v.038h-.184c-.582-.176-1.106-.178-1.32-.735.063-.222.11-.324.219-.476m4 .661c-.177.231-.445.357-.77.44v-.991c.001-.019-.024-.023-.037 0-.242.143-.535.352-.938.236.167-.334.211-.764.13-.75h-.036c-.364.081-.621.238-1.002.179-.101-.02-.05-.07-.026-.106l.257-.66c-.376.062-.706.121-1.069-.037.086-.086.213-.171.299-.256.072-.093.122-.197.183-.295l-.073-.072c-.316.091-.657-.077-.928-.179.09-.112.152-.194.304-.299.138-.058.263-.153.22-.219-.036-.025-.031-.086-.099-.1-.368-.045-.754-.067-1.002-.293.025-.037.086-.084.11-.121.313-.261.371-.235.844-.22 0-.012.064.002.006-.089-.212-.335-.102-1.042-.136-.897-.088.467-.806.528-.787.363.013-.811-.299-.545-.358-.741-.044-.142.071-.291.285-.418.495-.297.785.278.697-.016-.049-.062-.056-.144-.147-.184-.387-.075-.716-.251-.807-.44-.072-.18-.05-.446.089-.66a.364.364 0 01.168-.11c.411-.06.799.727.843.551-.21-.624-.297-1.326.271-1.559.117-.031.344-.041.5.127.261.319-.034 1.17 0 1.797.039.697.422 1.539.734 2.055.26.387.563.765.954 1.139.349.271.887.618 1.25.693.046.111.137.308.181.443.065.069.115.115.225.194.195.31.474.686 1.085 1.504.059.05.061.135.074.185-.592.109-1.026-.018-1.494-.194m-2.679-7.486c.002-.103.187-.121.268-.121.261.013.273.094.429.195.295.366-.328.725-.579 1.841-.025.081-.049.156-.061.156a.365.365 0 01-.057-.126c-.17-.675-.02-1.247 0-1.945m2.603 4.389c-.187-.436.305-.959.442-1.232.035-.098-.001-.077-.036-.037-.171.183-.334.394-.505.578-.028.029-.079.007-.075-.036 0-.109 0-.245.03-.323.16-.489.269-.751.663-1.102.041-.022-.005-.094-.077-.073-.183.063-.461.217-.644.28 0-.063.037-.229.074-.315.109-.16.204-.324.35-.441.045-.018.081-.015.112.002a.4.4 0 00.069.232c.131.188.315.427.368.451.104.05.21.1.295.159-.331.716-.574 1.474.331 2.129.175.126.395.216.574.244.112.213.68.345.82.159.196-.036.391-.073.587-.111.63-.273.91-.851.917-1.541.414-.015.521-.2.734-.403l.074.111c.171.31.002.808-.147 1.027l-.33-.331h-.037c.097.345.319.672.183 1.064l-.073-.036c-.061-.187-.133-.277-.33-.331v.037c.227.383.476 1.099 0 1.468h-.037c-.006-.373-.151-.643-.367-.808l-.073.074c.102.234.383.839.208 1.14-.294-.22-.632-.549-.926-.769 0 .037.09.248.13.293.195.295.38.685-.057 1.33-.242-.721-1.199-1.248-1.381-1.664-.039.717.884 1.223.154 2.238l-.073-.037c-.188-.631-.718-.955-1.028-1.467-.217-.361-.319-.62-.193-1.203-.067-.006-.112.053-.136.065-.074.122-.168.32-.241.441-.107-.067-.1-.141-.127-.22-.105-.448.196-.62.305-1.014a1.13 1.13 0 00.026-.124c-.012 0-.018-.114-.111.108-.085.168-.1.232-.258.32-.021-.043-.03-.158.002-.208.084-.161.14-.313.151-.568-.017-.037-.054-.007-.064.022-.02.022-.035.065-.055.115-.037.086-.069.125-.105.211-.049.11-.099.125-.113.096m2.461-3.361c-.074.109-.147.22-.22.33l-.257-.037c-.31-.123-.557-.479-.459-.801.049.012.171.018.221.031.348.141.574.379.574.379.153-.031.171.031.141.098m.954.476v-.183l.036-.073c.208-.08.581-.141.808-.111.169.024.288.012.369.078l-.007.014c-.2.48-1.041.654-1.206.275m-2.831-.409c-.254-.503.177-1.15-.031-1.809.34.126.677.464.709.5.011-.311.15-.764.275-.954a.892.892 0 01.227.287l.256.405c.06-.127.094-.354.153-.481.1-.215.243-.424.343-.638.098.256.226.623.324.881.141-.049.039-.105.11-.215.061-.293.159-.428.232-.623.133.225.239.685.306 1.039h.037l.073-.037c.098-.227.19-.368.287-.501.349.36.221.973.306.991.135-.007.3-.313.41-.41.195.214.084.717.202.832.043.036.092-.043.116-.069.247-.216.463-.367.789-.219-.067.635-.129 1.69-.459 1.835-.061.06-.245-.098-.33-.11.365.649.109 1.411-.624 1.43l-.33-.184c-.061-.023-.098-.011-.073.075.475.801-.276 1.653-.991 1.687l-.073-.037.036-.22c.618-.034 1.07-.768.807-1.43h-.036c-.109.302-.194.45-.624.439-.133-.022-.261-.155-.33-.256.034-.514.383-.45.66-.697v-.845c.452.323 1.072.097 1.306-.245.032-.089.051-.158.061-.21.094-.181.369-.185.374-.505-.154.311-.581.215-.949.223-.331.008-.704.047-.738-.024-.025-.11-.045-.291-.069-.4-.026.019-.079.098-.079.139-.028.543-.037 1.043-.086 1.568-.259-.117-.549-.213-.92-.143v-.035l.513-1.652c-.006-.072-.043-.086-.073-.037-.062.169-.088.288-.22.33h-.037c-.234-.012-.377-.286-.575-.385-.201-.049-.342-.055-.55-.079-.098-.062-.184-.294-.27-.428-.045-.073-.09-.026-.03.275.091.23.318.355.318.355s.008.334.117.52c.188.32.548.332.843.55-.071.211-.25.516-.183.734.16.34.467.509.403.991-.142.068-.211.102-.439.109-.273-.097-.473-.186-.588-.44-.135-.221-.037-.519.074-.696l-.074-.074c-.147.025-.294.048-.441.074-.259-.055-.471-.321-.545-.69-.001-.007-.019-.02-.04-.033a.527.527 0 00.058-.128c-.02-.134.086-.184.082-.33m26.627 7.587s-.051-.321-.203-.548c.262.134.18-.606.089-.782.521-.18-.062-1.174-.451-1.473.114-.089.329.061.251-.079-.243-.307-.421-.642-.66-.8-.175-.114-.576-.046-.576-.046s-.347-.302-.651-.27c-.675.074-1.76.513-2.699.709-1.323.279-2.873-.557-3.136-1.099 1.235.148 3.18.584 4.456.146.589-.201 1.041-.727 1.615-.881.269-.012.538-.023.807-.037 1.119-.248 1.459-.921 1.761-2.018-.034-.218-.083-.115-.11-.037-.456 1.25-1.816.44-2.942 1.059-.225.256-.164-.03-.183-.11-.493-1.697 1.875-.961 1.401-2.929-.013 0-.049-.032-.061.085-.167.85-.996.511-1.664.856-.544.281-.544.686-.654.715-.337-.641-.244-1.221-.006-1.731.084-.194-.115-.14-.373.025-.368.251-.675.557-.612 1.198-.031 0-.126-.011-.263-.121-.469-.484-.462-.798-.55-1.064l-.11.074c-.271.115-.514.464-.593.763-.39-.136-.424-.542-.948-.58v.073c-.076.127-.071.242-.037.404.03.079-.056.06-.147 0-.293-.133-.819-.371-1.1-.257.012.22-.049.392.152.696-.623-.023-1.058-.457-1.657-.512 0 .024-.036.079-.036.103-.037.183-.037.337-.074.521-.309-.008-1.013-.396-1.276-.569 1.828.24 2.929-2.056 4.138-1.56v-.037c-.248-.416-.662-.725-1.395-.66-.518.046-1.006.467-1.503.624-.998.313-1.918-.282-2.973-.074-.288.057-.419.221-.734.184.044-.371-.09-.89-.33-1.102-.024.013-.048.026-.073.037-.461 1.054-3.123 1.094-4.959 1.67-1.074.336-2.115 1.184-1.609 2.513.529 1.387 2.792 1.573 4.623 1.211 2.767-.546 5.763-.802 8.513-1.505 1.37-.349 2.965-.084 3.596.662.003 1.341-2.221 1.201-3.376.916-1.426-.351-4.241-.8-5.797-.366-2.144.599-6.272 1.097-8.696.441-.085-.311-.183-.684-.11-1.028.441-.181.727-1.648.55-2.165-.369-.089-.536.017-.88.073l-.367-.66h-.037c-.055.16-.05.168-.22.22-.063-.346-.225-.714-.44-.917-.025.012-.049.023-.074.037l-.109.256h-.147c-.04-.139-.17-.649-.221-.697l-.11-.036-.403.477c-.133-.157-.155-.318-.367-.404l-.514.697-.147-.037-.293-.44-.073.037-.294.733c-.273-.045-.479-.18-.77-.109.041.82-.024 1.505-.074 2.275-.617.238-.751.68-.693 1.33.005.057.266-.152.268-.025.002.136-.253.609-.243.674 0 .459.14.417.179.613.028.137-.017.242.013.344.083.283.166.398.183.66-.776-.065-2.562-1.847-2.385-2.789.118-.634.541-1.149.697-1.688.267-.928-.408-1.796-1.101-1.724.072.322.258.431.183.843h-.036l-.074-.037c-.194-.582-.568-1.122-1.394-1.1.215.284.396.481.403.991-.195.228-.325.45-.33.881-.017.156-.063.076-.109.051-.354-.288-.615-.495-1.235-.356-.247.091-.506.393-.307.34.401.045.538.168.734.404-.078.281.023.567.15.744.101.144.243.202.144.246-.2.151-.317.363-.367.661h-.734v.037c.257.618.662.781 1.114.788.218.003.514.136.677-.068.088-.021.119.229.146.278-.407.019-.833.311-.909.653.305.11.56.213.865.323.139.008.154.067.052.117l-.441.33.073.111c.318.102.535.248.918.329 0 .05.015.062-.051.133-.122.086-.194.185-.316.271.216.245.557.26.954.33.029-.004.044.086 0 .184-.122.088-.22.271-.257.44.432.01.805.042 1.174-.036 0 .049.044.098 0 .197-.082.165-.155.223-.257.353l.037.073c.384.015.735.023 1.065-.037 0 .135.043.285 0 .404-.098.221-.191.47-.191.47s.508.126 1.196-.476c.121.105.33.196.535.227-.048.141 0 .076-.11.147-.279.162-.967.199-1.284.183-.44-.024-.859-.008-1.3-.031-.54-.166-.903-1.722-2.212-1.762-.192.008-.654.178-.707.655.024.013.053.035.109-.005.241-.116.345-.064.551.042l.073.441c-.854-.074-1.56-.101-1.651.77.393-.207.65-.266.86-.185.05.287.213.402.388.626.026.037.047.061.047.109-.65.205-.689 1.008-.414 1.358.037.051.12-.067.136-.153.107-.507.315-.392.43-.566.285.239.5.38.939.242.27-.086.424-.265.623-.299.025.067.028.321.232.504.052.349-.115.727-.054.686.214-.145.613-.299.78-.532.335-.04.553-.424.494-.779h.356c.012.037-.094.076-.157.196-.11.268-.22.468-.33.738l.036.037c.512.004.772-.162 1.182-.438-.034.19-.228.409-.337.51-.076.099-.007.102.29.102.627-.008.817-.194 1.067-.469h.11v.074l-.037.514c.503-.102.952-.219 1.153-.751.213.323.08.542.205.642a.595.595 0 01.036.035c.388-.119.631-.367.844-.66.037.025.074.048.111.074l.073.439c.198-.037.807-.241 1.028-.813.484-.12 1.03-.652 1.151-.821.19-.427-.217-.788-.36-1.288.306.049.776.159 1.064.182.634 0 1.177-.074 1.859-.286 0 .012.364-.135.468-.165 1.327-.518 1.833-.914 2.605-1.285l1.357-.513c.025 0 .071-.044.089.007-.143.637-.509.918.095 1.754.161.222.527.42.521.551-.655.502-2.367.621-3.126.491-.293-.269-.523-.498-.817-.767-.126-.049-.242.006-.286-.048-.242-.219-.869.065-.939.115-.12.059-.166.173-.233.281.22.033.612.064.718.221.026.079-.015.14-.094.144-.285.015-.634.023-.859.175-.498.336-.734.879-.535 1.075.232-.221.318-.34.807-.33.102.201.317.195.477.33-.651.695-.405 1.145-.17 1.515.012.018.063.039.096-.011.14-.187.195-.51.404-.623.461-.25.562.077 1.174-.477.055-.084.103-.154.147 0 .066.479.315.301.221 1.174-.015.054-.043.09.078.034.121-.055.398-.131.398-.145.302-.111.68-.594.697-.99.005-.253.081-.132.147 0 .144.219.279.384.477.55l.257-.22c.241-.25.413-.416.513-.844.047-.076-.009-.188.184.037.178.209.278.508.33.844.022.122.073.061.22 0 .264-.211.576-.47.734-.844.025 0 .034-.154.073 0 .049.195.018.381.066.576.535-.119.831-.519 1.014-.847.056-.125.127-.118.205-.059.088.157.32.305.454.439.025.088.057.112.111.038.095-.19.567-.723.541-1.154.404-.268.347-.661.252-.864-.262-.555-1.378-.904-1.358-1.578-.061-.44.29.318.477.476.419.358 1.231.73 1.797.881 1.499.401 5.282-.777 6.648-.135.363.17.487.538.434 1.016l-.11.257c-.635.461-.914-.148-1.809-.166-.509-.14-.694.411-.833.827-.034.231.052.258.111.22.134-.111.293-.358.51-.363.048.144.194.285.375.37a1.039 1.039 0 00-.042 1.168c.074.045.107-.008.111-.075.119-.517.573-.597.573-.597s.158.246.38.267c.266.026.364-.179.587-.146.068.48.341.722.695.924.138.084.275-.006.333.027-.054-.225-.18-.434-.074-.695.073-.224.152-.089.293-.22l.294-.771c.456.188.714.137.844.661.061-.049.246-.288.295-.547.126-.492-.091-.678-.091-.678"/><path clip-path="url(#b)" fill="#3E1F0C" d="M54.95 41.063s.66-.046.751-.807c.092-.761-.054-1.037.046-1.203.055-.089-.017-.154-.088-.22-.06-.056-.11-.119-.168-.127-.065-.01-.195.058-.328.095-.128.035-.26.038-.296.079-.073.081-.165.496-.129.788.037.294.202.835.212 1.055.008.221-.092.34 0 .34"/><path clip-path="url(#b)" fill="#009CD5" d="M63.029 45.657s.181.484.126.578c-.055.094.363-.133.413-.478-.16-.243-.539-.1-.539-.1M60.89 46.081s.16-.336.401-.435c.242-.098-.258-.071-.302-.483.006-.177-.32.428-.099.918M61.605 42.926s-.375-.154-.858.162c.41.104.587.293.587.293s.168-.418.271-.455M60.438 43.911s-.513.213-.572.668c.286-.242.389-.272.543-.221-.103-.234.029-.447.029-.447M50.316 45.911s.362-.1.494-.41c-.173-.32-.541-.241-.541-.241s.169.288.047.651M48.317 44.461s-.545.289-.43.924c.183-.362.498-.498.498-.498s-.131-.241-.068-.426M47.184 43.517s.436-.226.708-.042c.032-.294.132-.395.132-.395s-.689.006-.84.437M48.149 42.321s.367-.095.546.1c.026-.205.209-.348.209-.348s-.477-.199-.755.248M48.377 35.78s-.469-.294-.92-.014c.275.051.574.346.574.346s.014-.262.346-.332M49.359 34.817s.285-.123.422.009c-.071-.394-.256-.688-.697-.764.291.36.275.755.275.755M50.47 35.144s.417.005.517.099c-.024-.284-.156-.664-.631-.839.208.299.171.636.114.74M75.006 44.667s.233-.299.457-.394c.008-.287.091-.398.091-.398s-.44.042-.548.792M75.885 45.659s.208-.443.544-.456c-.116-.269-.236-.469-.282-.448-.046.021-.439.415-.262.904M78.365 46.237s-.327-.308-.085-.727c-.223-.236-.544-.117-.563-.052-.02.065.196.615.648.779M79.603 44.626s.295.209.341.412c.163-.438.052-1.002-.059-.962-.113.039-.355.241-.282.55M48.025 37.94s-.329.246-.595.164c.472.451.831.472.831.472s.093-.359-.236-.636M55.05 38.981s-.229.119-.174.614c.055.495.257.991.266 1.183.009.193.211-.11.339-.365.129-.258-.046-1.194.074-1.386.119-.192-.083-.294-.184-.093-.1.203-.137.442-.1.891.036.449-.12.183-.157-.166-.036-.348.074-.504.101-.632.028-.129-.101-.093-.165-.046"/><path clip-path="url(#b)" fill="#976A3D" d="M68.483 42.858s.3-.032.338.221c.037.255-.023.24-.169.31-.146.071-.155.198.061.156s.319-.104.31-.33c-.009-.224-.014-.455-.319-.502-.306-.046-.329.145-.221.145M54.283 38.915s.311.322.467.291c.155-.032-.011.424-.011.424s-.404-.217-.456-.715M55.871 39.651s.373.031.561-.342c.186-.374-.281.238-.457.031-.178-.208-.104.26-.104.311"/><path clip-path="url(#b)" fill="#FFD530" d="M52.734 65.561l.003-15.182 1.982-1.687-.045 14.835z"/><path clip-path="url(#b)" fill="none" stroke="#785342" stroke-width=".306" stroke-linejoin="round" d="M52.734 65.561l.003-15.182 1.982-1.687-.045 14.835z"/><path clip-path="url(#b)" fill="#E39725" d="M72.867 63.12l.055-14.62 1.899 1.432.019 15.559-22.106.07 1.94-2.034s.819.556 2.09.458c1.987-.152 4.28-2.191 6.93-.152 1.274-.815 2.65-1.273 3.873-.917 1.223.356 2.548.968 3.567.866s1.733-.662 1.733-.662"/><path clip-path="url(#b)" fill="none" stroke="#785342" stroke-width=".306" stroke-linejoin="round" d="M72.867 63.12l.055-14.62 1.899 1.432.019 15.559-22.106.07 1.94-2.034s.819.556 2.09.458c1.987-.152 4.28-2.191 6.93-.152 1.274-.815 2.65-1.273 3.873-.917 1.223.356 2.548.968 3.567.866s1.733-.662 1.733-.662z"/><path clip-path="url(#b)" fill="none" stroke="#3E1F0C" stroke-width=".306" d="M73.809 49.11l-.974-.662s-.584.507-1.558.468c-.974-.039-2.961-1.214-4.441-1.286-2.034-.098-3.003 1.236-3.06 1.504 0 0-.617-1.125-2.277-1.192-1.024-.042-3.078.818-4.13 1.013-1.052.195-2.455-.468-2.455-.468l-.896.74H52.06v17.052h9.361s-.304 1.897 2.381 2.097c.274.02 2.361.046 2.257-2.088h9.655V49.131l-1.905-.021z"/><path clip-path="url(#b)" fill="#E39725" d="M72.867 63.12l1.973 2.371"/><path clip-path="url(#b)" fill="none" stroke="#785342" stroke-width=".306" d="M72.867 63.12l1.973 2.371"/><path clip-path="url(#b)" fill="#603926" d="M63.838 63.713s-1.536 1.359-1.595 1.58c-.059.222.221.354.221.354s-1.078 1.284.754 2.022c1.831.739 2.692-1.375 1.89-2.51-1.034-1.459-1.27-1.446-1.27-1.446"/><path clip-path="url(#b)" fill="#835221" d="M64.714 65.54c-.007.014.131.201.131.201.057.102.166.461.166.595 0 .548-.467.952-1.092.952s-1.093-.465-1.093-1.013c0-.198.095-.62.22-.68 0 0-.287-.754.707-.882.584-.074 1.081.602.961.827"/><path clip-path="url(#b)" fill="#FFD400" d="M55.279 37.724c.37-.013.548.001.709.159.054.077.043.16-.048.208-.203-.022-.249.148-.404.241-.041-.005-.069-.082-.101-.132-.073-.134-.156-.231-.229-.366-.029-.101-.04-.105.073-.11"/><path clip-path="url(#b)" fill="#FFE380" d="M55.254 37.766s.203.191.255.32c.052.127.052-.197.162-.123.11.076.4.186.325-.051-.075-.238-.742-.208-.742-.146"/><path clip-path="url(#b)" fill="#FFE38C" d="M54.38 50.581l-.063-.264s-.019-.327-.063-.418c-.183-.054-.682.509-.754.618-.073.109-.063.118-.063.118l-.064.418-.036.898-.019.826.019.572-.055.482.009.398.009.309.037 1.416v.536l-.037.371-.036.917-.018.6.009.445V60.628l-.009 1.235-.037.48-.018.507V63.405l-.082.617-.09.6-.064.062-.054-.008-.009-.49.009-.689v-1.28l.009-1.063-.028-1.225.01-1.018.009-1.115-.009-1.028.018-.934.018-1.343.027-2.396s.091-1.643.109-1.716c.019-.072.572-.563.572-.563s.817-.644.853-.635c.037.009.064 1.534-.009 1.534-.073.001-.1-.134-.1-.134"/><path clip-path="url(#b)" d="M58.663 53.919a5.064 5.064 0 01-.607-.518v-.455s.395 0 .597-.051c.203-.05.334-.213.071-.213s-.658-.009-.658-.009v-.782c0-.25-.101-.301-.192-.301s-.223.051-.223.375v.708h-.982l-.355.638c-.05.09.193-.061.365-.133.172-.07.84-.191.972-.191 0 0 .054.472-.304.77-.354.293-.587.596-1.63.849-.103.026.061.243.415.294.354.05.803-.151 1.387-.931.122-.162.152-.091.152.081 0 .171.051 1.154-.041 1.367-.091.213.061.293.183.07s.192-.678.192-1.721c0-.111.233.162.517.274.283.111.383.051.141-.121m2.01.051c.217-.261.364-.516.364-.516s1.244.008 1.351-.037c.089-.08.217-.424.172-.469-.044-.043-.241.201-.356.201h-.995s.498-.956.569-1.08c.089-.026.142-.08.134-.169-.009-.089-.32-.258-.383-.214-.062.045-.284.16-.284.16h-.799c.026-.124-.178-.355-.24-.355-.063 0-.036.027-.152.365-.115.337-.639.764-.639.764s-.045.069.071.071c.409.009.818-.533.818-.533h.843c.107 0 .151.035.107.143-.045.106-.482.862-.482.862-.228.008-.917.004-1.144-.01-.213-.013-.267-.089-.329.053s-.115.338-.115.338c.08.125.355-.08.471-.08l.735.006c.159 0 .176.009.176.009-.148.246-.777 1.107-1.6 1.5-.391.187-.865-.146-.865-.058-.028.234.294.441.738.513.382.063.931-.476 1.144-.699.214-.223.273-.112.302-.01.222.784.294.943.436.943h.951c.124 0 .186-.124.302-.685.115-.558.195-.808.053-.88-.142-.071-1.226-.038-1.226-.038-.142 0-.184-.031-.128-.095m.057.437c.054-.062.639-.027.729-.018.088.008.204.08.16.311-.045.23-.107.515-.179.551-.071.035-.479.044-.533.017-.052-.027-.372-.639-.177-.861M56.802 58.051s-.108.314-.173.553c-.065.238-.293.574-.39.727-.098.151-.011.324.206.194.216-.13.52-.509.52-.662.162 0 .714-.042.714-.042l-.021.727s-.606.541-1.344.715c-.189.044-.335.205-.054.379.13.055.553.021 1.051-.391 0 0 .239-.184.282-.184s.011.639.011.823.195.14.26-.151c.064-.293.162-1.008.162-1.008s.596-.52.444-.704c-.064-.054-.368.26-.368.26s.032-.433.032-.53c.185-.033.676-.098.683-.217.01-.195-.715-.131-.715-.131s.032-.486.022-.715c-.006-.114-.216-.211-.282-.205 0 0-.195.033-.195.195v.736h-.607s.033-.119.022-.228c-.01-.108-.184-.26-.26-.141M59.421 57.651s.043.803-.683 1.475c-.064.06-.084.247.217.087.331-.177.52-.499.52-.499h.466c.055 0-.375 1.609-1.55 1.844 0 0-.152.064.054.151s.841-.126 1.178-.538c.336-.411.643-1.099.752-1.468.293-.021.612-.021.612-.021s-.493 1.625-1.577 2.362c-.068.045.086.098.433-.021.347-.12.976-.704 1.551-2.385 0 0 .564-.098.629-.065.065.033.01.174-.065.401-.076.228-.543 1.354-.835 1.562-.126.088-.531-.131-.531-.076 0 .054.292.421.498.421s.466-.194.727-.735c.26-.542.639-1.398.683-1.67.043-.271-.184-.422-.477-.336-.293.087-1.161.228-2.266.206-.109-.002-.033-.195 0-.368.033-.174.043-.521-.185-.521-.227-.001-.151.194-.151.194M67.792 51.68c-.142-.017-1.336.165-1.729.2-.393.037-.776-.111-.838.094-.063.206.16.357.356.384 0 0 .223.624.009 2.541-.015.131-.036.281.071.276.188-.008.312-.276.535-.285.223-.009 1.355-.098 1.489-.098s.107.044.125-.508c.018-.553-.009-1.828.063-2.185.07-.356.062-.401-.081-.419m-1.748 1.445s.775-.17 1.373-.162c.054.002.08.108.071.323-.009.214.027.293-.142.311-.17.018-1.133.124-1.24.143-.107.017-.089-.098-.08-.312.01-.215-.008-.24.018-.303m1.445.954c-.009.142.027.375-.098.375s-1.105.052-1.284.105c-.178.055-.008-.061-.035-.508 0 0 .526-.106 1.034-.124.508-.018.392.009.383.152m.009-1.641c0 .133-.009.187-.125.187s-1.034.108-1.114.134c-.081.027-.232.053-.232-.062a2.56 2.56 0 00-.063-.384c.072-.027.072-.115.214-.133.143-.018.892-.116 1.142-.116.248 0 .178.098.178.374"/><path clip-path="url(#b)" d="M71.209 55.588c-.051-.204-.255-1.173-.255-1.605 0-.434.077-2.065.191-2.358.115-.293.128-.369-.216-.369s-2.127.255-2.319.255c-.191 0-.252.234-.119.314 0 0-.016.125.094.158.076.076.765 1.605-.141 2.7-.098.12-.675.815-1.592.701-.117-.014-.268-.026-.14.191.128.216.599.459 1.274.166.675-.293 1.274-1.414 1.299-1.631.179 0 1.3-.013 1.3-.013s-.077 1.21.408 1.618c.111.094.268.076.216-.127m-.636-1.873c-.216.012-1.21.012-1.21.012s.025-.561.013-.802c0 0 1.121-.077 1.21-.139.089-.065-.013.738-.013.929m.153-1.822c-.038.255 0 .484-.128.522-.126.039-1.108.165-1.324.165a2.292 2.292 0 00-.151-.484c-.081-.173-.162-.279-.105-.279 0 0 .791-.038 1.198-.064.408-.025.548-.115.51.14M65.811 57.638s.315.095.738-.042c.46-.15.492-.022.471.127-.022.15-.481.258-.685.258-.642 0-.749-.343-.524-.343M65.437 58.772s.481.011.92-.074c.438-.086.931-.268.888-.021s-.524 1.883-1.455 2.086c-.127.027-.856.149-.984-.546-.031-.169.107-.011.289.063.182.076.642.15 1.037-.287.397-.439.599-.696.675-1.018.01-.074-.008-.101-.663.011-.504.086-.782.481-1.006.054-.076-.278.299-.268.299-.268M68.165 57.317s2.707-.053 2.921-.053c.214 0-.054.234-.193.256-.139.022-2.193.076-2.46.086-.268.012-.321.214-.45.117-.129-.095.129-.385.182-.406"/><path clip-path="url(#b)" d="M69.395 56.857s.139-.106.268-.053c.128.053.01.236-.043.417-.054.182-.086.727-.086.727l-.118.14s-.198-.021-.203-.159c-.01-.311.043-1.018.182-1.072"/><path clip-path="url(#b)" d="M70.989 58.173c-.01-.118-.374-.226-1.263-.235-.887-.01-2.011.331-2.011.331-.117.14.022.407.096.664.06.205.196.466.31.481.284.037 1.285-.043 1.841-.086s.696-.075.813-.214c.118-.139.225-.823.214-.941m-2.161.878c-.043.139-.385.096-.546.074-.067-.01-.278-.621-.171-.664 0 0 .589-.182.642-.074.054.108.118.525.075.664m.866 0c-.074.042-.417.063-.513.063-.096 0-.096-.032-.096-.182s-.054-.62.085-.664c0 0 .492-.042.546-.031.053.011.021.245.021.448s.032.322-.043.366m.738-.099c-.106.033-.454.089-.454.047 0-.043.026-.747.026-.747s.263-.007.403-.007c.139 0 .162-.005.162.091s-.03.584-.137.616M67.018 60.528s.836-.633.954-.729c.117-.097.289.043.396.086s1.509.77 2.214.727c.478-.028.934-.399.931-.396 0 0 .065.14-.032.3-.096.16-.516.631-1.182.531-.465-.069-1.76-.799-2.081-.959-.082-.041-.129-.043-.214.032-.086.075-.577.503-.695.599s-.15.064-.247 0c-.096-.064-.12-.134-.044-.191"/><path clip-path="url(#b)" d="M69.405 59.967s.134-.062.274-.047c.14.014.213.088.3-.015.087-.099.013-.198-.16-.252-.174-.053-.427-.033-.574.153-.088.113.078.214.16.161M70.553 59.694s.4.24.533.246c.134.008.194-.047.08-.206a.618.618 0 00-.533-.26c-.149.005-.127.189-.08.22M104.016 53.979c.017.09-.016.195-.214.269a4.485 4.485 0 01-.941.316c-.115.014-.215-.06-.215-.12v-1.155h-4.933v.795c0 .09-.083.196-.396.3l-.759.255c-.132.029-.264-.075-.264-.195l.066-1.709V48.19l-.165.119c-1.172.855-2.425 1.635-3.795 2.115l-.149-.195c2.014-1.47 3.977-3.106 5.099-5.16h-3.316a6 6 0 00-1.188.134l-.38-.599h6.979v-1.5l-.742.075-2.343.136-2.921.074-.049-.27 2.723-.39a46.039 46.039 0 007.821-1.845c.346.45.775.989 1.122 1.5.032.09.032.226-.099.255-.331 0-.578-.18-.892-.195l-2.541.405-.758.091v1.664h3.976l.71-.856c.066-.058.231-.074.33-.013.528.343.973.674 1.468 1.049.049.06.099.195 0 .255l-.115.03h-5.281l.166.195c1.188 1.41 2.953 2.055 4.669 2.596l1.221.269-.033.24c-.726.06-1.485.27-1.881.855-1.914-.825-3.993-2.28-4.785-4.155h-.445v1.304l.032 1.261c0 .09-.032.194-.148.255-.33.15-.693.255-1.072.301a.179.179 0 01-.199-.121l.066-1.664v-1.336h-.362a14.787 14.787 0 01-2.343 2.804l1.237.452h4.389l.495-.497c.05-.074.247-.074.33 0l1.089.75c.066.077.116.166.033.271-.132.136-.28.226-.33.39l.033 4.74zm-1.37-5.19h-4.934v1.635h4.934v-1.635zm0 2.116h-4.934v1.92h4.934v-1.92zM126.373 47.123a.39.39 0 01-.396.121l-.198-.15c-.528-.855-1.138-1.695-1.98-2.385l.132-.269c1.007.314 2.195.569 2.805 1.484.182.42-.033.885-.363 1.199m12.821 2.386c-.198 0-.33 0-.611.075-.396.09-.759.315-1.056.63-.643-.3-1.237-.795-1.782-1.274-.082-.016-.082.09-.099.149v.675l.05.885c-.017.105-.149.179-.33.24-.264.105-.776.285-.891.27-.066-.015-.132-.06-.149-.12v-.39h-2.887c0 .885-.017 1.53.066 1.89.198.315.643.315 1.039.33.99.03 2.013.03 3.003-.015.462-.061.693-.36.842-.869.148-.526.297-1.051.412-1.591l.297.015c.017.6.05 1.23.215 1.815.148.3.495.54.792.705-.776 1.065-2.096 1.155-3.432 1.17-1.106 0-2.228.045-3.284-.09-.412-.059-.808-.181-1.072-.511l-.083-.179-.066-.285c-.049-1.334-.016-2.64-.033-4.02-.957.75-1.881 1.455-2.937 1.98-.082-.015-.165-.121-.247-.121-.033.886.198 1.711.313 2.566 0 .21.05.434-.132.6-.28.286-.742.105-1.056-.015a1.212 1.212 0 01-.659-1.199c.148-.631.296-1.366.214-2.071-.297-.51-.941-.676-1.485-.825l.016-.315c.578.015 1.304.121 1.733-.299l.676-1.201 1.238-2.385.693-1.44.33.105a42.84 42.84 0 01-.627 1.695l2.541.015c.033-.69-.017-1.35 0-2.01h-.99c-.281 0-.66.075-.957.135-.083-.21-.231-.39-.314-.6h2.261l.016-1.695-.049-1.065c.561.12 1.138.27 1.633.435.116.06.165.165.099.271-.214.194-.396.375-.396.464v1.59h1.947v-1.545l-.033-1.245c.644.15 1.155.285 1.749.465.099.03.165.165.066.271-.148.134-.511.33-.511.449v1.605h1.056l.693-.915c.066-.091.247-.104.313-.03.462.36.941.78 1.337 1.185.066.09.033.225-.099.225H135.3v2.01l1.237-.015.71-.87c.082-.06.198-.075.28-.016.479.407.759.601 1.287 1.125.083.106-.016.211-.099.241h-3.91c1.056 1.41 2.739 2.28 4.455 2.715l-.066.225zm-11.418-5.46c-.083.061-.215.045-.297.016-.297-.271-.495-.705-.71-1.006-.495-.675-.957-1.17-1.584-1.755l.132-.239c.941.299 1.865.614 2.657 1.215.247.224.462.449.396.795-.083.419-.264.779-.594.974m.313 2.52l-.825 2.34c-.148.615-.346 1.185-.313 1.875 1.534-1.2 2.805-2.61 3.597-4.215h-2.459zm6.122 0h-2.145c-.264.435-.578.871-.875 1.291l.413.314h2.491l.396-.375c.132-.09.248-.045.363.09-.231-.436-.495-.84-.643-1.32m.115 2.07h-2.871v1.575h2.871v-1.575zm-.346-4.545h-1.914v2.01h1.914v-2.01zM161.65 45.429c.116-1.5.066-3.194-.049-4.739.742.119 1.485.254 2.211.42.082.045.148.149.082.239-.165.181-.512.195-.594.45l-.049 2.385-.1 1.245h4.274l.726-1.05c.033-.075.231-.075.347 0 .561.375 1.122.795 1.666 1.244a.237.237 0 010 .211l-.082.045h-6.089c.181 1.38.792 3.061 1.98 4.276 1.353 1.364 2.953 2.369 4.653 3.059l-.049.225-.776-.031c-.726-.029-1.287.331-1.815.75-2.855-2.173-4.439-5.024-4.604-8.279l-.214-.015c-.231 2.535-1.006 5.025-3.399 6.705-1.171.825-2.376 1.515-3.729 1.92l-.495.15-.148-.255c2.326-1.08 4.586-3.03 5.527-5.295.446-1.08.611-2.1.709-3.21h-4.405c-.429 0-.874.061-1.435.151l-.446-.601h6.303zM201.414 47.874c-.247.121-.561.031-.676.135-.611.361-1.155.705-1.699 1.125l-.281-.12c.264-.39.512-.855.693-1.29h-11.055c-.017.615-.148 1.245-.842 1.5a.864.864 0 01-.81-.045.457.457 0 01-.114-.51c.099-.195.346-.285.494-.434.495-.496.875-1.035.892-1.726l.28-.014c.033.24.066.509.066.75h.644l-.182-2.656c-.065-1.02-.182-1.799-.297-3 .544.18.907.345 1.386.496.627-.346 1.271-.721 1.799-1.276l.957.99c.016.075-.033.165-.115.196-.545-.09-.99.09-1.815.359l-.792.256.048.959.843-.015.545-.569c.033-.061.197-.106.313 0 .396.284.644.555.989.899.38-.36.826-.809 1.172-1.2-.297-.33-.709-.57-1.089-.779l.165-.195c.445.15.875.33 1.304.494.313-.435.61-.84.891-1.289a6.47 6.47 0 011.139.719c.033.031.05.09.017.135-.132.075-.313.075-.445.136l-.809.705c.363.284.875.689.676 1.184-.065.18-.181.375-.412.39l.792.526c.033.044.099.105.05.164-.133.121-.348.045-.512.105-.215.165-.445.301-.66.465.43.24.907.45 1.039.855l.033.075c.05.3-.115.586-.396.765-.132.061-.265-.029-.362-.09-.314-.39-.693-.75-1.057-1.08l-.132.075c-.678.39-1.403.826-2.146 1.125l-.215-.209a12.34 12.34 0 001.914-1.441c-.362-.27-.643-.479-1.138-.735l.099-.195c.578.135 1.007.316 1.502.465.363-.3.594-.705.907-1.05a9.727 9.727 0 00-.66-.825c-.347.271-1.271.9-1.946 1.261l-.231-.15.264-.256h-2.392l.098 1.455h.793l.594-.705c.049-.06.23-.03.28 0 .396.301.644.51 1.022.885.066.06.116.166.066.24l-.148.06h-2.557l.049 1.276h7.672l.116-1.201h-.825c-.165 0-.494.06-.742.105l-.347-.584h1.946l.149-1.455-.99-.016c-.247 0-.445.061-.726.106l-.496-.586h2.229l.115-1.125h-1.155c-.264 0-.61.06-.858.105l-.396-.585 2.228-.014.545-.495c.033-.046.197-.031.247 0l1.171.659c.051.076.133.166.051.256-.166.195-.512.195-.595.434l-.445 4.396.347.014.527-.479c.05-.045.198-.076.281-.016.445.33.759.54 1.154.93a.147.147 0 01-.033.18m-.065 3.315h-6.354v2.22c0 .72-1.204 1.035-1.913 1.23-.066-.495-.396-.99-.924-1.185-.313-.15-.66-.27-1.006-.39l.049-.315c.693.135 1.369.285 2.111.3.149 0 .281-.089.314-.224v-1.636h-4.95c-.38 0-.925.104-1.271.15l-.33-.629h6.534v-.241l-.066-.9c.347.105.693.211 1.023.33h.083c.329-.27.594-.539.906-.84h-4.322c-.282 0-.561.045-.974.135l-.396-.629 6.055.014.578-.375c.082-.075.313-.09.429 0 .577.345.892.57 1.221.795.066.045.083.135.05.211-.066.119-.495.044-.742.105-.794.194-1.551.494-2.294.795.61.254-.182.329-.182.524v.076h4.241l.66-.676c.049-.045.148-.03.214-.015.479.33.792.511 1.319.899.102.091.053.271-.063.271M96.746 63.92v5.988c0 .973 0 1.285 1.128 1.285v.215H93.71v-.215c1.128 0 1.128-.313 1.128-1.285V63.92h-.648c-.912 0-1.416.289-1.74 1.693h-.216v-2.148h7.116v2.148h-.216c-.324-1.404-.828-1.693-1.74-1.693h-.648zM103.189 69.909c0 .973 0 1.285 1.128 1.285v.215h-4.164v-.215c1.128 0 1.128-.313 1.128-1.285v-4.943c0-.973 0-1.284-1.128-1.284v-.216h4.164v.216c-1.128 0-1.128.312-1.128 1.284v2.111h2.784v-2.111c0-.973 0-1.284-1.128-1.284v-.216h4.164v.216c-1.128 0-1.128.312-1.128 1.284v4.943c0 .973 0 1.285 1.128 1.285v.215h-4.164v-.215c1.128 0 1.128-.313 1.128-1.285v-2.315h-2.784v2.315zM112.646 67.161c1.38 0 1.5-.791 1.692-1.883h.216v4.199h-.216c-.192-1.092-.312-1.884-1.692-1.884v2.136c0 1.008 0 1.225.828 1.225 1.128 0 2.544 0 3.144-2.064h.216l-.36 2.52h-6.864v-.215c1.128 0 1.128-.313 1.128-1.285v-4.943c0-.973 0-1.284-1.128-1.284v-.216h6.648v2.352h-.216c-.348-1.775-1.164-1.896-2.736-1.896h-.66v3.238zM126.361 63.465h2.736v.216c-1.068 0-1.116.384-1.116 1.368v3.48c0 1.127-.312 3.06-3.096 3.06-1.992 0-2.94-.948-2.94-2.724v-3.9c0-.973 0-1.284-1.128-1.284v-.216h4.164v.216c-1.128 0-1.128.312-1.128 1.284v4.308c0 .888.288 1.728 1.656 1.728 1.512 0 1.968-1.295 1.968-2.375V65.05c0-.984-.048-1.368-1.116-1.368v-.217zM136.273 68.336h.024v-3.672c0-.66-.324-.983-1.128-.983v-.216h2.7v.216c-.804 0-1.128.323-1.128.983v6.925h-.192L131.197 65h-.024v5.209c0 .66.324.984 1.128.984v.215h-2.7v-.215c.804 0 1.128-.324 1.128-.984v-5.797c-.384-.492-.576-.731-1.152-.731v-.216h2.808l3.888 4.871zM141.469 69.909c0 .973 0 1.285 1.128 1.285v.215h-4.164v-.215c1.128 0 1.128-.313 1.128-1.285v-4.943c0-.973 0-1.284-1.128-1.284v-.216h4.164v.216c-1.128 0-1.128.312-1.128 1.284v4.943zM151.537 63.681c-.66.097-.924.552-1.452 1.716l-2.796 6.192h-.192l-3.144-7.261c-.108-.252-.288-.611-.876-.647v-.216h3.816v.216c-.48 0-.972 0-.972.408 0 .192.168.54.24.72l1.824 4.236 1.704-3.828c.18-.396.276-.696.276-.936 0-.529-.612-.601-1.044-.601v-.216h2.616v.217zM155.029 67.161c1.38 0 1.5-.791 1.692-1.883h.216v4.199h-.216c-.192-1.092-.312-1.884-1.692-1.884v2.136c0 1.008 0 1.225.828 1.225 1.128 0 2.544 0 3.144-2.064h.216l-.36 2.52h-6.864v-.215c1.128 0 1.128-.313 1.128-1.285v-4.943c0-.973 0-1.284-1.128-1.284v-.216h6.648v2.352h-.216c-.348-1.775-1.164-1.896-2.736-1.896h-.66v3.238zM163.092 69.909c0 .973 0 1.285 1.128 1.285v.215h-4.104v-.215c1.128 0 1.128-.313 1.128-1.285v-4.943c0-.973 0-1.284-1.128-1.284v-.216h4.392c1.8 0 2.976.695 2.976 2.232 0 1.031-.816 1.764-1.8 1.955l2.052 2.856c.312.444.48.685.948.685v.215h-2.496l-2.556-3.623h-.54v2.123zm0-2.532h.576c1.416 0 1.848-.696 1.848-1.668 0-1.26-.552-1.789-1.656-1.789h-.768v3.457zM174.361 65.925h-.217c-.132-1.068-1.092-2.185-2.232-2.185-.66 0-1.332.324-1.332 1.057 0 1.619 4.297 1.691 4.297 4.344 0 1.5-1.309 2.448-2.725 2.448-.623 0-1.021-.12-1.572-.36a1.415 1.415 0 00-.443-.107c-.275 0-.517.228-.601.468h-.216v-3h.216c.18 1.284 1.188 2.592 2.568 2.592.685 0 1.44-.408 1.44-1.164 0-1.836-4.237-1.765-4.237-4.452 0-1.344 1.152-2.279 2.436-2.279.576 0 .949.107 1.453.359.168.084.348.18.539.18.324 0 .348-.287.408-.539h.217v2.638zM178.74 69.909c0 .973 0 1.285 1.128 1.285v.215h-4.163v-.215c1.127 0 1.127-.313 1.127-1.285v-4.943c0-.973 0-1.284-1.127-1.284v-.216h4.163v.216c-1.128 0-1.128.312-1.128 1.284v4.943zM185.195 63.92v5.988c0 .973 0 1.285 1.129 1.285v.215h-4.164v-.215c1.127 0 1.127-.313 1.127-1.285V63.92h-.647c-.912 0-1.416.289-1.739 1.693h-.217v-2.148h7.115v2.148h-.215c-.324-1.404-.828-1.693-1.74-1.693h-.649zM193.656 69.909c0 1.08 0 1.285 1.283 1.285v.215h-4.476v-.215c1.284 0 1.284-.205 1.284-1.285v-1.451l-1.992-3.601c-.528-.96-.684-1.176-1.271-1.176v-.216h3.803v.216c-.383 0-.779 0-.779.373 0 .19.252.624.348.792l1.549 2.832 1.584-2.665c.119-.204.371-.612.371-.853 0-.408-.527-.479-.875-.479v-.216h2.412v.216c-.685 0-.996.696-1.404 1.38l-1.836 3.061v1.787zM200.711 67.437c0-2.46 1.801-4.151 4.225-4.151 2.425 0 4.225 1.691 4.225 4.151s-1.8 4.152-4.225 4.152c-2.424 0-4.225-1.692-4.225-4.152m6.337 0c0-1.403-.265-3.696-2.112-3.696s-2.111 2.293-2.111 3.696c0 1.404.264 3.696 2.111 3.696s2.112-2.292 2.112-3.696M213 69.909c0 .973 0 1.285 1.127 1.285v.215h-4.163v-.215c1.128 0 1.128-.313 1.128-1.285v-4.943c0-.973 0-1.284-1.128-1.284v-.216h6.708v2.352h-.217c-.348-1.775-1.164-1.896-2.735-1.896H213v3.24c1.584 0 1.787-.695 1.932-1.703h.216v4.02h-.216c-.145-1.188-.348-1.884-1.932-1.884v2.314zM223.571 69.909c0 .973 0 1.285 1.128 1.285v.215h-4.164v-.215c1.129 0 1.129-.313 1.129-1.285v-4.943c0-.973 0-1.284-1.129-1.284v-.216h4.164v.216c-1.128 0-1.128.312-1.128 1.284v2.111h2.784v-2.111c0-.973 0-1.284-1.128-1.284v-.216h4.164v.216c-1.128 0-1.128.312-1.128 1.284v4.943c0 .973 0 1.285 1.128 1.285v.215h-4.164v-.215c1.128 0 1.128-.313 1.128-1.285v-2.315h-2.784v2.315zM230.195 67.437c0-2.46 1.801-4.151 4.225-4.151 2.423 0 4.224 1.691 4.224 4.151s-1.801 4.152-4.224 4.152c-2.424 0-4.225-1.692-4.225-4.152m6.336 0c0-1.403-.264-3.696-2.111-3.696-1.849 0-2.112 2.293-2.112 3.696 0 1.404.264 3.696 2.112 3.696s2.111-2.292 2.111-3.696M246.084 68.336h.023v-3.672c0-.66-.324-.983-1.127-.983v-.216h2.699v.216c-.805 0-1.128.323-1.128.983v6.925h-.192L241.008 65h-.024v5.209c0 .66.324.984 1.128.984v.215h-2.699v-.215c.803 0 1.127-.324 1.127-.984v-5.797c-.384-.492-.576-.731-1.151-.731v-.216h2.808l3.887 4.871zM256.247 66.081h-.216c-.443-1.308-1.512-2.34-2.939-2.34-2.041 0-2.545 2.064-2.545 3.721 0 1.728.396 3.672 2.532 3.672.444 0 .841-.073 1.296-.241v-1.319c0-.972 0-1.283-1.128-1.283v-.217h3.925v.217c-.949 0-.949.312-.949 1.283v1.356c-1.008.612-2.64.66-3.383.66-2.568 0-4.404-1.716-4.404-4.044 0-2.485 1.955-4.26 4.392-4.26.876 0 1.392.144 1.765.287.371.145.6.289.852.289.325 0 .48-.324.588-.576h.216v2.795zM263.844 67.881v2.027c0 .973 0 1.286.984 1.286v.214h-4.021v-.214c1.128 0 1.128-.313 1.128-1.286v-4.943c0-.973 0-1.284-1.128-1.284v-.216h3.972v.216c-.936 0-.936.312-.936 1.284v2.328L266.676 65c.539-.443.73-.647.73-.887 0-.385-.467-.433-.887-.433v-.216h3.095v.216c-.526 0-.851.239-1.438.72l-2.629 2.112 2.701 3.384c.647.816 1.08 1.298 1.764 1.298v.214h-4.129v-.214c.205 0 .625-.038.625-.35 0-.275-.457-.815-.637-1.032l-1.728-2.172-.299.241z"/><path clip-path="url(#b)" d="M269.869 67.437c0-2.46 1.801-4.151 4.225-4.151s4.225 1.691 4.225 4.151-1.801 4.152-4.225 4.152-4.225-1.692-4.225-4.152m6.337 0c0-1.403-.265-3.696-2.112-3.696s-2.111 2.293-2.111 3.696c0 1.404.264 3.696 2.111 3.696s2.112-2.292 2.112-3.696M285.758 68.336h.023v-3.672c0-.66-.323-.983-1.127-.983v-.216h2.699v.216c-.804 0-1.127.323-1.127.983v6.925h-.193L280.682 65h-.023v5.209c0 .66.324.984 1.127.984v.215h-2.699v-.215c.804 0 1.128-.324 1.128-.984v-5.797c-.384-.492-.576-.731-1.151-.731v-.216h2.807l3.887 4.871zM295.922 66.081h-.217c-.443-1.308-1.512-2.34-2.939-2.34-2.04 0-2.544 2.064-2.544 3.721 0 1.728.396 3.672 2.532 3.672.443 0 .84-.073 1.296-.241v-1.319c0-.972 0-1.283-1.128-1.283v-.217h3.924v.217c-.948 0-.948.312-.948 1.283v1.356c-1.008.612-2.64.66-3.384.66-2.568 0-4.403-1.716-4.403-4.044 0-2.485 1.955-4.26 4.392-4.26.875 0 1.392.144 1.764.287.372.145.6.289.852.289.324 0 .48-.324.588-.576h.217v2.795z"/></svg>